<?xml version="1.0"?><svg width="298.646" height="298.646" xmlns="http://www.w3.org/2000/svg" xmlns:xlink="http://www.w3.org/1999/xlink">
 <title>Earth</title>
 <defs>
  <linearGradient id="linearGradient3533">
   <stop stop-color="#3a3a3a" id="stop3535" offset="0"/>
   <stop stop-color="#ffffff" id="stop3537" offset="1"/>
  </linearGradient>
  <linearGradient id="linearGradient3624">
   <stop stop-color="#398fe5" offset="0" id="stop3628"/>
   <stop stop-color="#acc1d5" id="stop3630" offset="1"/>
  </linearGradient>
  <linearGradient id="linearGradient3615">
   <stop stop-color="#ffffff" id="stop3619" offset="0"/>
   <stop stop-color="#398fe5" offset="1" id="stop3621"/>
  </linearGradient>
  <radialGradient r="19.966738" fy="578.88593" fx="82.9272" cy="578.88593" cx="82.9272" gradientTransform="matrix(7.6237907,4.4015976,-5.0675166,8.7771962,2328.4492,-5270.6109)" gradientUnits="userSpaceOnUse" id="radialGradient2333" xlink:href="#linearGradient3364"/>
  <linearGradient id="linearGradient3351">
   <stop stop-color="#ffffff" stop-opacity="0.867347" id="stop3353" offset="0"/>
   <stop stop-color="#ffffff" stop-opacity="0" id="stop3355" offset="1"/>
  </linearGradient>
  <linearGradient id="linearGradient3364">
   <stop stop-color="#007fff" id="stop3366" offset="0"/>
   <stop stop-color="#1c8eff" offset="0.392857" id="stop3413"/>
   <stop stop-color="#1a4a7a" id="stop3368" offset="1"/>
  </linearGradient>
  <linearGradient id="linearGradient6692">
   <stop stop-color="#b8ff71" id="stop6694" offset="0"/>
   <stop stop-color="#66cc00" offset="1" id="stop6700"/>
  </linearGradient>
  <radialGradient r="141.81195" fy="249.47238" fx="317.86237" cy="249.47238" cx="317.86237" gradientTransform="matrix(0.9225535,0.5499376,-0.6128212,1.0614374,210.79224,-49.879453)" gradientUnits="userSpaceOnUse" id="radialGradient2331" xlink:href="#linearGradient6692"/>
  <radialGradient r="179.38509" fy="244.68217" fx="333.362" cy="244.68217" cx="333.362" gradientTransform="matrix(1.0565445,0,0,0.5952981,10.2201,208.24643)" gradientUnits="userSpaceOnUse" id="radialGradient2335" xlink:href="#linearGradient4328"/>
  <linearGradient id="linearGradient4328">
   <stop stop-color="#398fe5" id="stop4330" offset="0"/>
   <stop stop-color="#0066cc" id="stop4332" offset="1"/>
  </linearGradient>
  <radialGradient r="179.50987" fy="365.75668" fx="318.06638" cy="365.75668" cx="318.06638" gradientTransform="matrix(1.0565445,0,0,0.5956187,10.2201,263.97431)" gradientUnits="userSpaceOnUse" id="radialGradient2337" xlink:href="#linearGradient4328"/>
  <radialGradient gradientUnits="userSpaceOnUse" gradientTransform="matrix(1.4674635,0,0,1.0734203,-134.66628,-8.6146276)" r="130.08176" fy="314.29395" fx="290.86432" cy="314.29395" cx="290.86432" id="radialGradient3357" xlink:href="#linearGradient3351"/>
  <radialGradient gradientUnits="userSpaceOnUse" gradientTransform="matrix(1.131046,0,0,1.131204,-29.352716,-17.655402)" r="149.30214" fy="315.40961" fx="298.10294" cy="315.40961" cx="298.10294" id="radialGradient3361" xlink:href="#linearGradient3364"/>
  <radialGradient r="141.81195" fy="249.47238" fx="317.86237" cy="249.47238" cx="317.86237" gradientTransform="matrix(0.9225535,0.5499376,-0.6128212,1.0614374,-0.1554987,-133.93797)" gradientUnits="userSpaceOnUse" id="radialGradient3373" xlink:href="#linearGradient6692"/>
  <radialGradient r="179.38509" fy="244.68217" fx="333.362" cy="244.68217" cx="333.362" gradientTransform="matrix(1.0565445,0,0,0.5952981,-200.72763,124.1879)" gradientUnits="userSpaceOnUse" id="radialGradient3375" xlink:href="#linearGradient4328"/>
  <radialGradient r="179.50987" fy="365.75668" fx="318.06638" cy="365.75668" cx="318.06638" gradientTransform="matrix(1.0565445,0,0,0.5956187,-200.72763,179.91578)" gradientUnits="userSpaceOnUse" id="radialGradient3377" xlink:href="#linearGradient4328"/>
  <radialGradient r="179.38509" fy="244.68217" fx="333.362" cy="244.68217" cx="333.362" gradientTransform="matrix(1.0565445,0,0,0.5952981,-200.72763,124.1879)" gradientUnits="userSpaceOnUse" id="radialGradient3383" xlink:href="#linearGradient4328"/>
  <radialGradient r="179.50987" fy="365.75668" fx="318.06638" cy="365.75668" cx="318.06638" gradientTransform="matrix(1.0565445,0,0,0.5956187,-200.72763,179.91578)" gradientUnits="userSpaceOnUse" id="radialGradient3385" xlink:href="#linearGradient4328"/>
  <radialGradient r="149.30214" fy="315.40961" fx="298.10294" cy="315.40961" cx="298.10294" gradientTransform="matrix(1.131046,0,0,1.131204,-29.352716,-17.655402)" gradientUnits="userSpaceOnUse" id="radialGradient3392" xlink:href="#linearGradient3364"/>
  <radialGradient r="141.81195" fy="249.47238" fx="317.86237" cy="249.47238" cx="317.86237" gradientTransform="matrix(0.9225535,0.5499376,-0.6128212,1.0614374,210.79224,-49.879453)" gradientUnits="userSpaceOnUse" id="radialGradient3394" xlink:href="#linearGradient6692"/>
  <radialGradient r="130.08176" fy="314.29395" fx="290.86432" cy="314.29395" cx="290.86432" gradientTransform="matrix(1.4674635,0,0,1.0734203,-134.66628,-8.6146276)" gradientUnits="userSpaceOnUse" id="radialGradient3396" xlink:href="#linearGradient3351"/>
  <radialGradient r="130.08176" fy="314.29395" fx="290.86432" cy="314.29395" cx="290.86432" gradientTransform="matrix(1.4674635,0,0,1.0734203,-127.41403,-8.614628)" gradientUnits="userSpaceOnUse" id="radialGradient3686" xlink:href="#linearGradient3351"/>
  <radialGradient r="141.81195" fy="249.47238" fx="317.86237" cy="249.47238" cx="317.86237" spreadMethod="reflect" gradientTransform="matrix(0.9225535,0.5499376,-0.6128212,1.0614374,218.04449,-49.879453)" gradientUnits="userSpaceOnUse" id="radialGradient3732" xlink:href="#linearGradient6692"/>
  <radialGradient r="149.30214" fy="315.40961" fx="298.10294" cy="315.40961" cx="298.10294" gradientTransform="matrix(1.131046,0,0,1.131204,-22.100471,-17.655402)" gradientUnits="userSpaceOnUse" id="radialGradient3813" xlink:href="#linearGradient3364"/>
  <radialGradient r="130.08176" fy="309.10764" fx="298.66852" cy="309.10764" cx="298.66852" gradientTransform="matrix(0.2436217,0.8776417,-1.1344403,0.3149057,586.4121,-25.658023)" gradientUnits="userSpaceOnUse" id="radialGradient3969" xlink:href="#linearGradient3351"/>
  <radialGradient r="141.81195" fy="249.47238" fx="317.86237" cy="249.47238" cx="317.86237" spreadMethod="reflect" gradientTransform="matrix(0.9225535,0.5499376,-0.6128212,1.0614374,218.04449,-49.879453)" gradientUnits="userSpaceOnUse" id="radialGradient3976" xlink:href="#linearGradient6692"/>
  <radialGradient r="149.30214" fy="315.40961" fx="298.10294" cy="315.40961" cx="298.10294" gradientTransform="matrix(1.131046,0,0,1.131204,-22.100471,-17.655402)" gradientUnits="userSpaceOnUse" id="radialGradient3979" xlink:href="#linearGradient3364"/>
  <radialGradient gradientUnits="userSpaceOnUse" gradientTransform="matrix(1.2871291,0,0,0.588703,-103.70783,273.98098)" r="143.60872" fy="641.82562" fx="361.18896" cy="641.82562" cx="361.18896" id="radialGradient3539" xlink:href="#linearGradient3533"/>
  <radialGradient r="149.30214" fy="315.40961" fx="298.10294" cy="315.40961" cx="298.10294" gradientTransform="matrix(1.131046,0,0,1.131204,-22.100471,282.3446)" gradientUnits="userSpaceOnUse" id="radialGradient4429" xlink:href="#linearGradient3364"/>
  <radialGradient r="149.30214" fy="315.40961" fx="298.10294" cy="315.40961" cx="298.10294" gradientTransform="matrix(1.131046,0,0,0.5900932,-22.100471,489.57569)" gradientUnits="userSpaceOnUse" id="radialGradient4466" xlink:href="#linearGradient3364"/>
  <radialGradient gradientUnits="userSpaceOnUse" gradientTransform="matrix(1.0526127,0,0,0.7540853,-19.699324,101.21241)" r="225.89062" fy="655.5625" fx="374.42188" cy="655.5625" cx="374.42188" id="radialGradient4475" xlink:href="#linearGradient3533"/>
 </defs>
 <metadata id="metadata3318">image/svg+xml</metadata>
 <g>
  <title>Layer 1</title>
  <g id="layer2"/>
  <g id="layer1">
   <g id="g7821">
    <path fill="url(#radialGradient3979)" fill-rule="nonzero" stroke-width="0.277553" stroke-miterlimit="4" d="m149.329193,0c-26.480896,0 -51.311066,6.965637 -72.881653,19.077545c-0.013519,0.007538 -0.040649,-0.007599 -0.054077,0c-13.958069,7.84314 -26.445557,17.930481 -37.170242,29.670044c-24.262939,26.559204 -39.223221,61.788971 -39.223221,100.57547c0,82.436279 66.91922,149.322845 149.329193,149.322968c2.593658,0 5.110596,-0.247498 7.671722,-0.378357c4.121185,-0.210754 8.183502,-0.541931 12.20993,-1.080994c37.336334,-4.996399 70.314758,-23.69696 93.627808,-51.017395c22.25946,-26.085541 35.765625,-59.887451 35.765625,-96.846222c0,-18.861267 -3.607483,-36.829529 -9.994934,-53.44931c-3.132721,-8.151428 -7.004761,-15.9552 -11.453583,-23.346954c-19.280334,-32.034393 -50.147675,-56.19931 -86.874542,-66.690002c-13.038208,-3.724182 -26.723907,-5.836792 -40.952026,-5.836792z" id="path6109"/>
    <path fill="url(#radialGradient3976)" fill-rule="nonzero" stroke-width="0.277553" stroke-miterlimit="4" d="m128.183868,4.702423c-0.537476,0 -1.387726,0.098083 -1.752411,0.584442c-0.35199,0.469391 -0.68988,1.079346 -1.070801,1.460266c-0.22821,0.228271 -0.467194,0.876404 -1.070923,0.876404c-0.348297,0 -1.501801,-0.187927 -1.752289,0c-0.464142,0.348328 -1.118866,0.678986 -1.265564,1.265747c-0.188385,0.753693 -0.826569,0.631866 -1.362793,1.168274c-0.302704,0.302826 -1.01059,0.861359 -1.460297,0.973816c-0.58786,0.146881 -1.10376,0.29187 -1.75235,0.292023c-0.49353,0 -1.178925,-0.118927 -1.654999,0c-0.777313,0.194397 -1.184235,0.904724 -1.849579,1.071014c-0.60495,0.151276 -0.879059,0.393219 -1.168274,0.778961c-0.373596,0.498108 -1.242249,0.778809 -1.84967,0.778809c-0.932739,0 -0.973267,0.170227 -1.654999,0.681549c-0.484253,0.363251 -1.330566,0.486816 -1.947083,0.486816c-0.827667,0 -2.000366,0.026581 -2.725769,0.389343c-0.493896,0.247223 -1.148712,0.34082 -1.362885,0.876495c-0.341949,0.854858 -0.62854,0.947052 -1.460266,1.363251c-0.483887,0.242004 -1.550415,0.576599 -1.947083,0.973358c-0.30246,0.302734 -0.470337,1.380341 -0.876007,1.460663c0.028625,0.017181 0.637848,0.548737 0.778717,0.584045c0.598663,0.149872 1.377441,0.097443 2.044373,0.097443c0.806061,0 1.509552,0.097412 2.336365,0.097412c0.710968,0 1.133575,-0.486877 1.75235,-0.486877c0.828674,0 1.653564,-0.000305 2.433777,0.194763c0.650421,0.162537 1.263275,0.389465 1.94693,0.389465c0.723999,0 1.132019,-0.039612 1.75238,-0.194763c0.787292,-0.196899 1.261383,-0.156708 1.654999,-0.681488c0.346283,-0.461945 0.638153,-0.746307 1.070862,-1.071136c0.345825,-0.259369 1.65506,-1.655151 1.946991,-1.655304c0.725555,0 1.255859,-0.216248 1.94693,-0.389282c0.474976,-0.118774 0.493591,-1.264465 0.973633,-1.168427c0.281982,0.056458 0.860626,0.758606 1.168152,0.681549c0.2677,-0.067017 0.59903,-0.13974 0.876221,-0.097198c0.277191,0.042114 0.501678,0.253967 0.584137,0.584076c0.162201,0.648865 0.349304,0.628052 0.681366,1.070984c0.162781,0.217102 0.971252,1.177856 0.87616,1.557953c-0.11554,0.462769 -0.225769,1.238647 -0.097137,1.752411c0.128815,0.516022 0.153351,1.085968 0.389252,1.557922c0.157715,0.315521 0.603241,1.049744 0.681519,1.363037c0.152466,0.610504 0.49173,0.594238 0.77887,1.168427c0.341797,0.684052 0.171753,0.982086 -0.097351,1.655121c-0.230255,0.575775 -0.565918,1.242126 -0.389587,1.947388c0.036499,0.145447 0.061157,0.341034 0.097504,0.486877c0.108734,0.435638 0.171173,0.671509 0.292084,0.778748c0.120667,0.1073 0.290344,0.097504 0.778625,0.097504c0.574493,0 1.366364,0.003387 1.654999,0.291931c0.390259,0.390533 0.778931,0.609833 0.778931,1.168427c0,0.401978 -0.222137,1.474213 -0.58429,1.655212c-0.261688,0.131012 -1.070709,0.833984 -1.070709,1.265686c0,0.542267 0.09729,1.154358 0.09729,1.655212c0,0.109406 -0.02655,0.283661 0,0.389587c0.161591,0.646454 0.299103,1.474213 0.584137,2.044586c0.224396,0.44873 0.727631,0.845459 0.973572,1.46051c0.217255,0.543396 0.238678,1.35376 0.486725,1.849976c0.274048,0.548279 0.548187,0.999329 0.778778,1.460388c0.273163,0.546356 0.437439,1.605896 0.87616,2.0448c0.516998,0.517029 0.723724,0.867737 1.168365,1.460388c0.381409,0.508881 0.865967,1.158203 1.26532,1.55777c0.354828,0.355042 0.716675,0.814087 1.168488,1.265778c0.929657,0.930023 1.491058,1.475861 2.628326,2.044708c0.582428,0.291351 1.258942,0.580719 1.84964,0.876251c0.667694,0.333954 1.232086,0.778137 1.75238,1.168427c0.591614,0.443787 1.206726,1.08551 2.044434,0.876221c0.725983,-0.18161 1.843231,-0.045441 2.531067,-0.389587c0.226257,-0.113007 0.475342,-0.186646 0.681427,-0.389221c0.206299,-0.202667 0.381287,-0.503143 0.194641,-0.876526c-0.151642,-0.303375 -0.486694,-0.796143 -0.486694,-1.265564c0,-0.797791 -0.194641,-1.515747 -0.194641,-2.33667c0,-0.581635 -0.034851,-1.029358 0.09726,-1.558014c0.104401,-0.417969 0.133942,-1.021301 0,-1.557709c-0.164856,-0.660278 -0.030945,-1.292542 -0.194641,-1.947418c-0.135925,-0.543915 -0.097351,-1.244476 -0.097351,-1.849792c0,-0.567413 -0.032318,-1.039032 0.097351,-1.5578c0.152466,-0.609985 0.097382,-1.246002 0.097382,-1.849976c0,-0.517883 -0.08667,-1.09259 0.09726,-1.46051c0.187927,-0.376007 0.434021,-1.280579 0.973511,-1.460602c0.455383,-0.151672 2.044434,-0.49585 2.044434,-1.070862c0,-0.641205 -0.061005,-1.119995 -0.194794,-1.655212c-0.153809,-0.615295 -0.557373,-1.221619 -0.194641,-1.947296c0.416962,-0.83432 1.233337,-1.060516 1.75238,-1.752563c0.29541,-0.394165 0.807098,-0.80722 1.26535,-1.265839c0.344482,-0.344299 1.10083,-0.643707 1.265717,-0.973572c0.213562,-0.427155 0.486786,-1.06311 0.486786,-1.557953c0,-0.348572 0.151489,-1.579376 -0.194794,-1.752563c-0.503845,-0.251831 -1.07077,-0.163361 -1.07077,-0.77887c0,-0.409149 0.441467,-1.356049 0.292053,-1.655212c-0.236115,-0.472595 -0.49942,-0.879425 -1.265656,-1.070923c-0.603729,-0.151001 -1.43396,-0.267426 -2.044281,-0.389465c-0.36969,-0.073914 -1.210754,-0.182587 -1.362915,-0.486786c-0.173401,-0.346954 -0.34256,-1.291199 -0.681427,-1.460663c-0.552307,-0.276215 -1.176147,-0.291962 -1.849792,-0.291962c-0.170197,0 -2.270813,-0.503357 -1.557434,-0.681396c0.709076,-0.177429 0.68808,-0.305725 0.973358,-0.876465c0.161896,-0.323792 0.487152,-0.875793 0.194702,-1.265686c-0.407288,-0.543488 -0.961761,-0.767273 -1.362915,-1.168488c-0.532471,-0.532684 -1.765778,-0.778839 -2.531097,-0.778839c-0.109009,0 -0.186249,0.026459 -0.292053,0c-0.431396,-0.10788 -0.833374,-0.541412 -1.168213,-0.876312c-0.496216,-0.496582 -1.395172,-0.713989 -2.044373,-0.876221c-0.491364,-0.122833 -0.792084,-0.53894 -1.362854,-0.681732c-0.563049,-0.140564 -1.166565,-0.145264 -1.75235,-0.291931c-0.764893,-0.191345 -1.581085,-0.335876 -2.336517,-0.48703c-0.280487,-0.055939 -2.261139,-0.202667 -2.141724,-0.681396c0.07312,-0.292938 0.449249,-0.973572 0.87616,-0.973572c0.585785,0 1.27774,0.114502 1.849762,0c0.74649,-0.149414 1.512421,-0.292328 2.336548,-0.292114c0.751709,0 1.508423,0.048553 2.238831,0.194702c0.912994,0.182739 1.924347,0.06723 2.823303,0.292084c0.706177,0.176544 1.794159,0.292053 2.531067,0.292053c1.038086,0 2.247223,-0.097443 3.309998,-0.097443c1.623596,0 3.073822,-0.389282 4.672791,-0.389282c0.925232,0 1.241516,-0.564087 1.947083,-0.681549c0.357513,-0.059662 0.661743,-0.162781 0.778717,-0.292267c0.117157,-0.129089 0.015106,-0.263916 -0.486725,-0.389465c-0.610596,-0.152588 -1.314697,0.060638 -1.946991,-0.097321c-0.475189,-0.118774 -1.230042,-0.29187 -1.752289,-0.29187c-0.751251,0 -1.394409,-0.097443 -2.141724,-0.097443c-0.53479,0 -1.017395,0.156799 -1.557495,0.291962c-0.711639,0.17804 -1.395294,0 -2.141785,0c-0.76413,0 -1.572449,0 -2.336517,0c-1.046021,0 -2.144623,-0.194519 -3.115204,-0.194519c-0.632599,0 -1.251373,-0.097443 -1.75238,-0.097443c-0.994507,0 -2.147308,-0.002808 -2.920563,-0.389435c-0.720825,-0.360718 -1.243744,-0.578888 -2.044373,-0.779053c-0.370056,-0.09256 -1.228271,-1.071136 -1.557587,-1.071136zm62.110138,1.168396c-1.220245,0.254272 -2.480103,0.401001 -3.60202,0.681793c-1.41922,0.354706 -2.29425,1.008392 -3.601929,0.681396c-0.90979,-0.227448 -1.773834,-0.296295 -2.725861,-0.486877c0.30899,0.309204 0.1604,0.712189 -0.097351,1.071014c-0.257751,0.358978 -0.679779,0.631775 -0.876221,0.778961c-0.028717,0.021515 -2.244598,0.269165 -2.336426,0.292175c-0.527527,0.131866 -0.321991,0.486969 0,0.876251c0.322144,0.389526 0.815582,0.739471 0.973663,0.7789c1.203705,0.301147 2.72287,1.020782 3.79657,1.55777c0.461487,0.230865 0.677521,0.413086 0.778717,0.681641c0.101379,0.268402 0.088654,0.646515 0.194763,1.071075c0.209381,0.837799 0.331848,1.090759 1.070953,1.460449c0.646332,0.323273 2.096771,0.389526 2.82312,0.389526c1.176819,0 2.917084,0.583069 3.796722,0.87616c0.741486,0.247192 1.84256,1.064026 2.336365,1.557861c0.512878,0.513153 1.002075,0.816803 1.557739,1.557953c0.643433,0.858002 1.294586,1.328766 2.141632,1.752411c0.732208,0.366272 1.876923,0.354401 2.336426,0.584137c0.836151,0.418243 1.852112,1.073578 2.433868,1.655273c0.686127,0.686401 1.231476,1.328827 1.752228,1.849976c0.676392,0.676514 0.838837,1.432404 1.654999,2.044647c0.835449,0.626831 1.506195,1.116821 2.141785,1.752625c0.737213,0.737274 1.395905,1.103821 2.044434,1.752411c0.510132,0.510345 1.015167,1.251709 1.84964,1.460602c1.135254,0.283813 1.8573,-0.440002 2.823242,-0.681549c0.473175,-0.118561 2.185913,1.663849 2.433624,1.850037c0.574188,0.430328 1.128662,1.283936 1.363068,1.752472c0.26651,0.533386 1.169586,1.267273 1.557587,1.655212c0.750153,0.750244 0.928345,0.902374 1.84964,1.363037c0.377625,0.188812 0.808258,0.220062 1.168091,0.097321c0.360168,-0.122314 0.608124,-0.388458 0.681549,-0.681702c0.2034,-0.81369 0.515594,-1.24765 0.292023,-2.141846c-0.131622,-0.526917 -0.049866,-1.12677 0.194641,-1.557861c0.244873,-0.431 0.643127,-0.652069 1.363068,-0.292084c0.514221,0.257446 0.841431,1.098877 1.070923,1.557922c0.323486,0.647583 0.778717,1.503998 0.778717,2.433868c0,0.825623 0,1.364105 0,2.239594c0,0.354553 4.094574,2.634552 4.186096,2.726288c0.524841,0.524628 1.2323,0.854034 1.849579,1.265594c0.679474,0.453125 1.118561,0.900177 2.044342,1.36319c0.524994,0.262543 0.807953,0.749573 0.973663,1.265686c0.165527,0.516113 0.204559,1.031494 0.097351,1.460449c-0.120178,0.481232 0.28653,1.580048 0.097351,2.336823c-0.146637,0.587036 -0.254974,1.052307 -0.194702,1.363098c0.060089,0.310822 0.311218,0.447662 0.973419,0.778839c0.96048,0.480255 1.323517,1.242188 2.336426,1.849976c0.529846,0.318024 0.945465,4.032928 1.265656,4.673584c0.368866,0.737854 0.782959,1.735382 0.584076,2.531464c-0.215942,0.863922 -0.584076,1.504883 -0.584076,2.434082c0,0.662262 -0.519104,1.589874 -0.681519,2.239441c-0.154694,0.619843 -0.44931,1.274261 -0.584137,1.752533c-0.134735,0.47821 -0.109528,0.793488 0.584137,1.071014c0.901825,0.36087 2.385712,0.7789 3.309875,0.7789c0.977905,0 1.943115,0 2.920563,0c0.464386,0 0.933075,0.932068 1.362946,1.947296c0.430023,1.015228 0.79126,2.106812 0.876282,2.531525c0.179993,0.901184 0.415833,1.292053 0.97345,1.849915c0.731293,0.731628 1.800354,1.360596 2.044403,2.336731c0.278412,1.114471 0.662994,1.399689 0.194672,2.336792c-0.227844,0.456024 -1.827667,0.816559 -2.336426,1.070984c-0.730347,0.365295 -1.957855,0.498566 -3.017883,0.778992c-0.529938,0.140198 -1.0112,0.34491 -1.363007,0.584137c-0.351593,0.239105 -0.584076,0.555481 -0.584076,0.973633c0,0.953156 0.383606,1.351563 0.778931,2.141998c0.429901,0.860382 0.827393,1.524963 1.362885,2.23941c0.087402,0.116425 0.188995,0.28656 0.292053,0.389465c0.593719,0.593933 0.531189,1.519867 1.070923,2.239349c0.743958,0.992798 1.111237,1.833557 1.654816,2.921112c0.523407,1.046936 1.70462,1.851868 2.336395,3.115417c0.352936,0.706207 0.973663,2.050812 0.973663,3.018494c0,0.763367 0.402802,1.513855 0.584076,2.23941c0.138245,0.553284 0.699829,1.090668 1.265564,1.46051c0.565918,0.36969 1.139221,0.649811 1.654999,0.778839c0.911011,0.227814 1.967743,0.09726 2.920593,0.09726c1.008942,0 1.627106,-0.29187 2.531067,-0.29187c0.521179,0 1.260498,-1.356354 1.557648,-1.752716c0.650482,-0.867493 1.029053,-1.390289 1.265503,-2.336609c0.127502,-0.510345 0.260376,-1.019409 0.292145,-1.558105c0.031494,-0.5383 -0.071106,-1.044403 -0.486786,-1.460266c-0.354279,-0.354523 -0.414551,-0.703827 -0.389435,-1.071228c0.025055,-0.366974 0.135437,-0.732025 0.389435,-1.070862c0.136383,-0.182007 0.194641,-2.515106 0.194641,-2.628876c0,-0.09436 -1.236267,-1.648529 -1.460205,-1.947235c-0.546844,-0.729279 -0.685272,-1.662354 -1.070923,-2.434174c-0.415924,-0.832306 -0.486725,-1.562897 -0.486725,-2.628784c0,-0.823456 0,-1.610626 0,-2.434174c0,-1.113861 -0.50943,-1.482971 -1.070953,-2.044586c-0.591003,-0.591217 -0.567017,-1.100037 -0.778687,-1.947418c-0.145447,-0.581299 -0.078217,-0.922119 0.09729,-1.168243c0.175629,-0.246368 0.514435,-0.410339 0.876129,-0.681702c0.599182,-0.449341 0.778839,-1.397308 0.778839,-2.141876c-0.000122,-0.537476 -0.16861,-1.081238 -0.194641,-1.460571c-0.026154,-0.379425 0.058044,-0.671753 0.486725,-0.778839c0.39444,-0.098846 0.841064,0.225708 1.168152,0.584076c0.327209,0.358429 0.547729,0.795288 0.681427,0.973724c0.507202,0.676453 0.611145,1.066742 1.265717,1.5578c0.879364,0.659882 2.162659,0.98407 2.920593,1.363251c0.801208,0.400757 1.534088,0.809753 2.141632,1.265594c0.752838,0.56485 1.381409,1.08963 1.849579,1.557739c0.447144,0.447266 0.577423,1.321747 0.973663,1.850037c0.415131,0.553741 0.881195,0.686401 1.362823,1.168488c0.519836,0.519928 0.815369,1.53363 1.070953,2.044586c0.283112,0.566437 0.480194,0.786346 0.681274,0.7789c0.201447,-0.007446 0.451416,-0.274414 0.876282,-0.486786c0.268677,-0.134583 -0.418427,-2.160553 -0.486786,-2.434174c-0.190155,-0.760895 -1.263245,-1.844971 -1.557556,-2.434113c-0.314301,-0.628693 -0.212891,-0.897522 0,-0.876404c0.212585,0.021423 0.559448,0.267578 0.778717,0.486877c0.644012,0.644165 1.258606,0.862183 1.75235,1.849976c0.213867,0.427673 1.026978,1.027008 1.460297,1.46051c0.63446,0.634735 0.546448,1.212799 0.778778,2.142151c0.082184,0.328644 0.287201,0.407227 0.486786,0.389221c0.199432,-0.017639 0.446777,-0.181549 0.68158,-0.389221c0.46936,-0.415802 0.952118,-1.028748 1.070709,-1.265747c0.291107,-0.582458 0.378296,-1.232269 0.584076,-1.850006c0.268127,-0.804718 0.137054,-1.499329 -0.097229,-2.142059c-0.234558,-0.642792 -0.627045,-1.226685 -0.876282,-1.849976c-0.222839,-0.557159 -0.567322,-1.043182 -0.876129,-1.557861c-0.936127,-1.560364 -1.711243,-3.033142 -2.531006,-4.673431c-0.040222,-0.080261 -0.057953,-0.113922 -0.097443,-0.194855c-19.280243,-32.034241 -50.110443,-56.204163 -86.837372,-66.694946zm-95.014893,12.852173c-0.490021,0 -1.27179,0.928284 -1.557495,1.071228c-0.626862,0.313385 -1.281372,1.033997 -1.849884,1.460297c-0.591248,0.443604 -1.091187,0.842773 -1.654755,1.265747c-0.643188,0.482544 -1.069824,0.58429 -2.044464,0.58429c-0.92453,0.000244 -0.945282,0.423798 -1.654999,0.778961c-0.830139,0.41507 -1.597656,1.735077 -1.947052,2.43396c-0.329163,0.658752 -0.801636,1.483246 -1.168152,1.849976c-0.445618,0.44577 -1.239807,0.717194 -1.752319,0.973724c-0.611206,0.30542 -0.389343,1.512115 -0.389343,2.141998c0,0.420898 -1.640808,0.486938 -1.752319,0.486938c-0.223358,0 -1.517151,-1.906799 -1.655029,-2.0448c-0.688538,-0.688843 -0.3302,-0.812714 -1.362946,-1.071075c-0.559113,-0.13974 -1.013672,-0.092102 -1.265564,-0.194672c-0.251801,-0.1026 -0.389374,-0.378052 -0.389374,-1.070953c0,-0.75116 0.899139,-1.093994 1.265564,-1.460602c0.445526,-0.445343 1.322479,-0.758667 1.752319,-0.973541c0.626282,-0.313385 0.89035,-0.89032 1.362885,-1.36322c0.586914,-0.587006 0.681488,-1.262085 0.681488,-2.141968c0,-0.274475 -1.385101,-0.838623 -1.654999,-0.973602c-0.618103,-0.309204 -1.010651,-0.992188 -1.752319,-1.363159c-0.013428,0.00766 -0.083984,-0.007446 -0.097412,0c-13.957886,7.842957 -26.463501,17.859406 -37.188141,29.598938c-0.119644,0.60144 -0.175522,1.324799 -0.389481,1.752441c-0.408691,0.817963 -0.982132,0.98233 -1.557617,1.558044c-0.430817,0.430847 -0.659592,1.236267 -0.973434,1.655273c-0.452011,0.602539 -1.137375,0.845306 -1.654938,1.362946c-0.501678,0.50177 -0.486679,1.642975 -0.486679,2.336914c0,0.656708 0.290161,0.898438 0.583984,0.876099c0.293762,-0.022278 0.549103,-0.319244 0.7789,-0.778809c0.284241,-0.568878 1.708542,-1.451935 2.239059,-1.849976c0.72789,-0.546204 1.764465,-0.900421 2.141693,-1.655212c0.341034,-0.682159 0.666306,-1.107483 0.87616,-1.947235c0.27887,-1.115997 0.895889,-1.597168 1.46019,-2.72644c0.201721,0.630249 0.531403,1.407715 1.168289,2.0448c0.291306,0.291504 0.42749,0.713623 0.38942,1.071075c-0.038132,0.357391 -0.250381,0.695374 -0.38942,0.97345c-0.219086,0.438599 -1.100647,1.100861 -1.557693,1.557983c-0.553543,0.553833 -0.858154,0.548126 -1.168091,1.168518c-0.334763,0.669525 -0.89093,0.837097 -1.070862,1.557648c-0.168213,0.673187 -0.513123,1.176697 -0.681412,1.849792c-0.240219,0.961121 -0.080841,1.541321 -0.778915,2.239594c-0.473389,0.47348 -0.741272,1.407318 -0.876251,1.947388c-0.239273,0.957916 -0.669235,1.207764 -1.265472,1.654968c-0.649841,0.487793 -0.884598,1.493958 -1.070953,2.239655c-0.243835,0.975708 -1.404755,2.030518 -1.84964,2.920898c-0.382187,0.764679 -0.682388,0.878052 -1.070786,1.655273c-0.26976,0.539917 -0.308823,1.430054 -0.486862,2.141846c-0.197479,0.790222 -0.642151,1.537811 -1.168167,2.239349c-0.087204,0.116638 -0.286453,0.189301 -0.389343,0.292175c-0.519745,0.52002 -0.87616,1.719727 -0.87616,2.434113c0,0.66507 -0.896759,1.834686 -1.070847,2.531433c-0.237,0.947906 -0.422943,1.722107 -0.778961,2.434052c-0.439194,0.878876 -0.855362,1.224274 -1.265533,2.044739c-0.451157,0.902832 -0.714249,1.428833 -1.070786,2.142059c-0.286407,0.573273 -0.291992,1.396088 -0.291992,2.142151c0,0.655792 -0.228607,1.693146 -0.389374,2.336609c-0.178375,0.713379 0,1.69754 0,2.434265c0,0.954346 -0.341293,1.509521 -0.876266,2.044586c-0.626968,0.627136 -1.02803,0.996887 -1.265518,1.947388c-0.15033,0.601593 -0.55275,1.397766 -0.876114,2.044434c-0.427963,0.856018 -0.479828,1.353516 -1.071014,2.142151c-0.445694,0.594391 -0.768982,1.518555 -0.973465,2.33667c-0.21727,0.869385 -0.287735,1.549072 -0.681366,2.336761c-0.396393,0.793121 -0.481842,1.343201 -0.681488,2.141998c-0.193481,0.774658 -0.519043,1.330444 -0.778839,1.850037c-0.375458,0.751038 -0.389206,1.556671 -0.584106,2.336853c-0.212585,0.850861 -0.291992,1.872314 -0.291992,2.725922c0,0.748413 -0.389481,1.662567 -0.389481,2.531586c0,0.897736 -0.093964,1.641235 -0.292007,2.434174c-0.191086,0.764679 -0.097427,1.581879 -0.097427,2.434113c0,1.211578 -0.291992,2.370361 -0.291992,3.602509c0,0.947296 0.374084,1.107178 0.584106,1.947327c0.184814,0.740082 0.110886,1.612427 0.291946,2.336517c0.08847,0.353821 0.194855,0.642059 0.194855,1.071411c0.294159,1.177368 1.070892,1.525482 1.070892,2.726044c0,0.943787 0.098969,1.369629 0.29187,2.14209c0.18837,0.753357 0,1.750854 0,2.531433c0,0.779358 -0.301437,1.790192 -0.486664,2.531525c-0.024979,0.099762 0,0.188995 0,0.292023c0,0.931335 -0.292007,1.917145 -0.292007,2.920898c0,0.285858 0.576187,1.639496 0.778671,2.044739c0.375809,0.751617 0.580017,1.833008 0.77887,2.629089c0.294037,1.176544 0.625488,2.196106 1.070831,3.310272c0.354599,0.886505 0.396851,1.576263 0.778793,2.531219c0.249985,0.624725 -0.038315,1.793884 0.097382,2.336914c0.189606,0.758453 0.194717,1.647003 0.194717,2.434082c0,0.887207 0.19487,1.590027 0.19487,2.434052c-0.000168,0.843018 0.104782,1.588043 0.291946,2.336761c0.223801,0.896057 0.097366,1.558014 0.389404,2.141998c0.493988,0.988403 0.957581,1.202148 1.168228,2.0448c0.210587,0.842896 0.501602,1.616852 0.681519,2.3367c0.21048,0.84256 1.067612,1.545868 1.265472,2.336823c0.27182,1.087341 1.256348,2.05545 1.752274,3.213074c0.307098,0.716675 0.311493,1.596313 0.584213,2.142029c0.258591,0.517334 1.454285,0.968994 1.84964,1.265656c0.369461,0.27713 0.367584,0.588867 0.48674,0.876343c0.119202,0.287598 0.317459,0.54187 0.87616,0.681549c0.668762,0.167175 1.109879,0.832458 1.55751,1.168243c0.589478,0.442352 -0.308014,-1.427155 -0.486603,-2.141907c-0.202103,-0.808533 -1.013855,-1.657349 -1.362976,-2.239349c-0.326599,-0.544708 -0.045425,-1.843262 -0.292099,-2.336823c-0.401794,-0.803833 -0.762039,-1.490936 -0.973602,-2.3367c-0.224945,-0.900238 -0.6521,-1.733185 -0.876099,-2.628937c-0.228256,-0.914063 -0.574585,-1.538727 -0.973465,-2.3367c-0.476868,-0.954193 -1.070786,-1.304199 -1.070786,-2.434174c0,-0.725555 -0.556702,-1.989655 -0.87616,-2.628784c-0.336243,-0.672577 -0.194748,-2.026794 -0.194748,-2.823639c0,-0.782379 -0.292114,-1.421753 -0.292114,-2.239258c0,-0.965607 -0.26384,-1.931885 -0.486786,-2.823639c-0.204895,-0.820313 -0.486572,-1.553925 -0.486572,-2.434235c0,-0.650635 0.170349,-0.87085 0.291946,-0.7789c0.121552,0.09201 0.194626,0.517944 0.194626,1.071228c0,0.605713 0.821548,1.240753 0.973648,1.849792c0.214523,0.858551 0.364624,1.750519 0.584045,2.628876c0.172623,0.690765 -0.188187,1.680664 0,2.434265c0.215378,0.862122 0.681595,1.361816 0.681595,2.336609c0,0.813995 0.291885,1.405487 0.291885,2.142151c0,0.532837 0.64624,1.611206 0.778854,2.141937c0.208817,0.835724 0.37767,1.7052 0.58403,2.531494c0.174957,0.69928 0.573456,1.611908 0.778854,2.434143c0.166916,0.667999 0.583984,1.492554 1.070847,2.141907c0.423569,0.564819 0.504471,1.593048 0.778961,2.141998c0.435654,0.871887 0.645096,1.387726 1.070724,2.23941c0.345413,0.690887 0.599335,1.229218 0.778854,1.947327c0.20311,0.812622 0.909164,1.915771 1.265518,2.628876c0.33931,0.678497 0.720306,1.421204 0.876282,2.044647c0.230026,0.921143 0.45401,1.979126 0.876099,2.823547c0.34166,0.683685 0.676529,1.35321 0.97348,1.947388c0.424988,0.85025 0.981339,1.467987 1.557571,2.044678c0.704056,0.703949 1.681061,1.043854 2.531113,1.460266c0.85022,0.416748 1.534378,0.880188 1.752319,1.752655c0.188538,0.753967 0.802734,1.605591 1.070908,2.142059c0.396561,0.793121 1.141479,1.531128 1.752319,2.14209c1.616119,1.616516 2.979889,3.339813 5.062317,4.3815c0.7052,0.352509 1.174042,0.561096 2.044495,0.778809c0.877777,0.219543 1.591675,0.309204 2.336304,0.681458c0.750824,0.375702 1.448883,0.486938 2.336487,0.486938c0.352997,0 1.244598,0.822235 1.849701,0.973602c0.539307,0.13504 1.412537,-0.182526 2.141632,0c1.00238,0.250519 1.31958,-0.643799 2.336487,-0.389374c0.941528,0.235321 2.384491,2.397095 3.212463,3.018158c0.733307,0.550171 1.496979,1.130127 2.336548,1.849976c0.767731,0.658386 1.301483,1.031403 2.239014,1.265747c0.746918,0.186951 1.163849,0.289673 1.752319,0.584137c0.629974,0.315125 1.68869,0.097351 2.433899,0.097351c0.714111,0 1.429688,1.040527 1.84964,1.460602c0.997803,0.998047 2.171967,1.565674 2.823059,2.434174c0.572021,0.762878 0.899536,1.775818 1.557678,2.434052c0.592255,0.592316 1.422974,1.325623 2.141754,2.044708c0.594666,0.594788 1.273315,1.004822 1.460205,1.752258c0.19989,0.799957 1.159973,1.164398 1.752411,1.460663c0.652893,0.326447 1.533142,0.529358 2.141754,0.681488c0.542908,0.135864 1.42099,1.333862 1.849609,1.655273c0.326843,0.2453 2.004944,-0.194672 2.531158,-0.194672c0.685699,0 1.527588,0.998505 1.947144,1.557861c0.477753,0.637482 0.775269,1.168274 1.654785,1.168274c0.906128,0 1.66449,-0.398865 2.239075,-0.973816c0.455841,-0.455566 0.584076,-1.692596 0.584076,-2.336548c0,-0.598633 1.545959,0.767212 1.849701,1.071075c0.475067,0.475189 1.097717,1.19519 1.460297,1.557739c0.684814,0.684967 1.617249,1.579681 1.947083,2.23941c0.330811,0.661804 0.138947,1.543976 0.486725,2.23941c0.388519,0.777466 0.705414,1.232483 1.168274,1.849823c0.493378,0.658142 0.486725,1.188629 0.486725,2.23941c0,0.845215 0.194641,1.512512 0.194641,2.336761c0,0.720703 -0.615479,1.002014 -0.778778,1.655273c-0.195404,0.781647 -0.486725,1.327484 -0.486725,2.336792c0,0.699829 -1.265503,1.403442 -1.265503,2.434082c0,0.779053 0.780884,1.955933 0.973358,2.726135c0.220886,0.88385 0.467346,2.005859 0.876282,2.82373c0.471222,0.942688 1.202087,0.816772 1.460144,1.849854c0.22171,0.886902 0.27832,1.794739 0.486786,2.628784c0.196289,0.785583 0.688843,1.100037 0.876221,1.849976c0.163025,0.652771 0.664612,1.248901 1.070953,1.655212c0.501801,0.501953 1.3573,0.996521 2.044189,1.168396c1.244781,0.311035 1.705322,0.813293 2.336517,1.655273c0.554382,0.73938 0.834259,1.526306 1.654846,2.14209c0.816101,0.612122 1.176819,0.689697 1.752289,1.265564c0.131378,0.131348 0.235229,0.189148 0.389526,0.292114c0.77652,0.517883 0.990906,1.176941 1.947052,1.655273c0.775726,0.388 1.440247,1.039185 2.141663,1.460449c0.889282,0.533752 1.353485,0.920105 2.239136,1.363037c0.762268,0.381409 1.347992,1.112122 2.044434,1.46051c0.757751,0.37915 1.318604,0.692078 2.239014,0.876282c0.745331,0.149231 1.70105,0.425232 2.336578,0.58429c0.964966,0.241333 1.891449,0.410339 2.628357,0.778809c0.692474,0.346191 1.450043,1.158081 1.84964,1.558044c0.575378,0.575317 1.538879,1.012756 2.239227,1.362854c0.528595,0.264709 1.258087,0.726624 1.752197,0.973877c0.984283,0.492188 1.371399,1.198853 2.239166,1.849731c0.668335,0.501587 1.125061,1.125305 1.654846,1.655212c0.645844,0.64624 1.036102,1.523132 1.557648,2.044495c0.622375,0.622864 0.882813,1.292358 1.070953,2.044739c0.235901,0.944458 0.886993,1.482239 1.265503,2.239624c0.373108,0.746399 1.447266,1.183105 1.946991,1.849915c0.484772,0.646362 1.431427,0.944702 1.946991,1.460388c0.67688,0.677063 1.270599,0.882751 1.849792,1.655273c0.562988,0.750671 1.165771,0.971008 1.557526,1.363098c0.553406,0.553467 1.354309,0.823181 1.84964,1.070923c0.14917,0.074463 0.24054,0.138245 0.389557,0.194946c4.120972,-0.210815 8.142303,-0.532166 12.168823,-1.071228c0.032379,-0.077637 0.171661,-0.102661 0.194855,-0.194641c0.25647,-1.026611 1.509125,-1.825928 2.044281,-2.628845c0.553558,-0.83075 1.431641,-0.928955 2.141663,-1.070984c0.844574,-0.169006 1.218689,-0.732117 1.84964,-1.363037c0.643799,-0.644165 1.259369,-1.257324 1.849731,-2.044678c0.582336,-0.776672 0.791473,-1.315247 1.265625,-1.947266c0.560883,-0.74823 0.678955,-1.455627 1.070862,-2.239563c0.448364,-0.897217 0.922272,-1.580933 1.654999,-1.947327c0.852356,-0.426453 1.097565,-1.077576 1.84964,-1.265564c1.005524,-0.251709 1.441467,-0.652588 2.336304,-0.876404c0.725159,-0.181458 1.918152,-1.918274 2.336578,-2.336792c0.614502,-0.614746 1.032776,-1.020142 1.654846,-1.850037c0.229553,-0.306091 0.415375,-0.707275 0.681519,-0.973633c0.205841,-0.257385 0.378357,-0.424072 0.584198,-0.68158c0.345306,-0.431824 0.361115,-1.833618 0.486572,-2.33667c0.178802,-0.715515 0.542938,-1.670044 0.876312,-2.336914c0.342468,-0.685059 0.229828,-1.627563 0.584045,-2.336609c0.394226,-0.788391 0.642181,-1.479248 0.973663,-2.14209c0.37027,-0.740906 0.121124,-1.605286 0.486572,-2.33667c0.376038,-0.752014 0.600525,-1.493225 0.876221,-2.044678c0.394714,-0.789795 0.251526,-1.050476 1.26532,-1.5578c0.542206,-0.270935 1.098694,-1.195984 1.557739,-1.65509c0.428375,-0.42865 0.667358,-1.72406 0.876282,-2.14209c0.365143,-0.730408 1.280914,-1.378479 1.752289,-1.850098c0.372772,-0.372925 0.72467,-1.211548 1.070862,-1.557739c0.414185,-0.414185 0.478729,-1.623352 0.583984,-2.044739c0.168182,-0.671753 0.121399,-1.458679 0.292328,-2.141968c0.188049,-0.752869 -0.547089,-1.325867 -0.876312,-1.655334c-0.624817,-0.624817 -1.042969,-1.439331 -1.849579,-2.044708c-0.693756,-0.520386 -1.177246,-0.787781 -1.557648,-1.168182c-0.500458,-0.500549 -1.38858,-0.742889 -2.044556,-1.070953c-0.559784,-0.280151 -1.070282,-0.389496 -1.94693,-0.389496c-0.823212,0 -1.707825,0 -2.531097,0c-0.887878,0 -1.355743,0.194611 -2.141785,0.194611c-0.838898,0.000153 -1.400543,0.194885 -2.238922,0.194885c-0.77182,0 -1.564819,0 -2.336426,0c-0.698639,0 -1.225647,-0.389496 -2.044525,-0.389496c-0.838898,0 -0.914032,-0.56955 -1.362854,-1.168427c-0.401855,-0.536102 -1.467377,-0.681549 -2.141724,-0.681549c-0.9151,0 -1.761993,-0.097412 -2.823151,-0.097412c-1.225861,0 -1.429108,0.325134 -2.336578,0.778961c-0.641998,0.321136 -1.255615,0.769012 -1.654999,1.168427c-0.465027,0.46521 -1.491913,0.752655 -2.04422,0.973633c-0.726074,0.290436 -1.652679,0.17099 -2.336487,0c-0.46579,-0.116486 -0.608826,-0.424072 -0.681427,-0.779022c-0.072754,-0.354584 0,-0.801392 0,-1.265717c0,-0.90152 0.530304,-1.309052 1.070862,-1.849792c0.351654,-0.351929 0.292053,-1.594574 0.292053,-2.142059c0,-1.087952 0.11792,-1.224426 -0.292053,-2.044678c-0.352081,-0.704193 -1.067291,-0.970062 -1.460388,-1.363098c-0.465851,-0.466034 -0.816772,-1.303894 -1.265503,-1.752563c-0.429138,-0.429169 -0.875305,-1.263916 -1.168182,-1.849884c-0.290314,-0.581024 -1.116577,-0.899109 -1.655029,-1.168549c-0.669525,-0.334686 -1.688721,-0.446381 -2.239014,-0.584076c-0.673187,-0.168304 -1.638519,0 -2.336578,0c-0.771606,0 -1.467224,0 -2.238983,0c-0.824554,0 -1.463074,0.194763 -2.239075,0.194763c-0.58136,0 -1.141968,0.389313 -1.947083,0.389313c-0.63446,0 -1.22168,-0.882477 -1.654877,-1.460449c-0.56781,-0.757263 -1.264435,-0.874817 -1.752258,-1.363068c-0.520813,-0.521057 -1.149841,-0.662994 -1.557739,-1.070984c-0.483032,-0.483368 -1.807098,-0.719604 -2.433716,-0.876251c-0.920776,-0.230225 -1.69165,-0.456543 -2.336487,-0.778961c-0.888275,-0.444244 -0.921997,-0.870667 -1.362854,-1.752625c-0.375244,-0.750549 -0.68158,-1.164917 -0.68158,-1.947144c0,-0.619873 -0.378387,-1.633331 -0.584015,-2.044678c-0.14859,-0.297485 -0.392639,-0.622284 -0.486694,-0.779053c-0.301422,-0.603027 -0.041443,-0.93634 0.09726,-1.168274c0.138855,-0.231964 0.188446,-0.342468 -0.389252,-0.486786c-0.07016,-0.017456 -1.419922,1.259766 -1.557678,1.36319c-0.615387,0.461487 -1.077637,0.366577 -1.947144,0.583984c-1.282471,0.320831 -1.418121,0.264679 -2.530975,-0.292114c-0.462952,-0.231384 -0.539673,-0.506531 -0.681519,-0.681458c-0.141937,-0.174957 -0.275269,-0.271973 -0.973419,-0.097443c-0.710968,0.177826 -1.239502,0.668488 -1.849823,0.973755c-0.688751,0.344452 -1.04541,0.419067 -1.654968,0.87616c-0.629578,0.472504 -1.754242,0.829132 -2.336456,1.265839c-0.537201,0.402954 -1.962341,-0.34848 -2.239136,-0.486725c-0.730042,-0.365509 -0.749847,-1.637512 -0.87616,-2.141998c-0.17041,-0.681946 -0.364807,-0.764984 -0.584076,-0.58429c-0.218933,0.180481 -0.485596,0.679443 -0.681427,1.071014c-0.251678,0.503571 -0.617401,0.645447 -0.973419,0.681488c-0.356079,0.036072 -0.650391,-0.033142 -0.973663,-0.194855c-0.091278,-0.045654 0.097443,-2.045654 0.097443,-2.336548c0,-0.379639 -1.226532,-1.421448 -1.363007,-1.557922c-0.368622,-0.368774 -0.601715,-0.279572 -0.778778,0c-0.17691,0.279724 -0.321014,0.739746 -0.486725,1.070984c-0.379181,0.758759 -0.395538,1.686157 -0.584137,2.628876c-0.159271,0.797211 -0.19458,1.63028 -0.19458,2.434174c0,0.556763 -0.482574,0.969421 -0.876129,1.363129c-0.365662,0.365875 -0.425171,-0.14151 -0.389435,-0.876343c0.035736,-0.734741 0.198669,-1.634827 0.09729,-2.141998c-0.164001,-0.82016 -0.480286,-1.53186 -0.681519,-2.33667c-0.167114,-0.668884 -0.134064,-1.339325 -0.389435,-1.850037c-0.24353,-0.487335 -0.672058,-0.081543 -1.07077,0.486938c-0.398712,0.568085 -0.813049,1.343719 -0.973419,1.55777c-0.62207,0.829437 -1.960083,1.607513 -2.433807,2.239441c-0.223999,0.298553 -1.493713,0.795532 -1.849792,0.973572c-0.818176,0.409119 -1.847778,1.629456 -2.531067,2.141907c-0.64978,0.487732 -0.584076,1.871643 -0.584076,2.629028c-0.000061,0.954956 0.319885,0.820313 -0.194702,1.849823c-0.242737,0.485413 -0.634399,0.46225 -0.973572,0.292084c-0.339203,-0.170105 -0.552063,-0.45462 -0.681427,-0.584106c-0.541382,-0.541351 -0.962372,-0.776184 -1.75238,-0.973663c-0.862915,-0.215729 -1.533112,0.212769 -2.239075,0.389221c-0.954285,0.238831 -1.8237,0.650848 -2.725708,0.876465c-0.730865,0.182831 -1.78891,-0.033447 -2.43396,-0.194702c-0.546082,-0.136475 -1.065521,-0.870911 -1.557556,-1.363098c-0.620575,-0.620819 -0.834717,-0.820831 -1.460297,-1.655365c-0.473724,-0.631927 -0.627289,-1.078827 -1.265533,-1.557617c-0.783966,-0.588165 -0.958099,-0.261169 -1.362885,-1.071167c-0.347931,-0.696045 -0.582794,-1.166901 -0.973511,-1.5578c-0.394012,-0.394073 -0.292053,-1.367432 -0.292053,-2.141907c0,-0.758698 -0.194824,-1.714722 -0.194824,-2.531525c0,-0.787781 -0.155518,-1.595795 -0.291931,-2.142059c-0.171051,-0.684235 -0.097321,-1.655457 -0.097321,-2.336853c0,-0.573212 -0.973602,-1.143951 -1.460358,-1.265533c-0.806976,-0.201813 -1.377014,-0.389465 -2.628418,-0.389465c-1.042511,0 -1.883423,0 -2.920563,0c-0.771759,0 -1.564667,0 -2.336426,0c-0.58606,0 -0.733917,-0.123688 -1.070831,-0.292328c-0.133392,0 -0.876282,-2.054138 -0.876282,-2.336517c0,-0.845459 -0.194641,-1.512421 -0.194641,-2.336914c0,-0.807861 -0.148376,-1.56723 -0.292114,-2.141846c-0.158569,-0.634979 -0.106384,-1.399048 -0.292053,-2.142151c-0.168274,-0.673279 0,-1.63858 0,-2.3367c0,-0.844482 0.194733,-1.247223 0.194733,-2.142059c0,-0.599182 0.097321,-1.437897 0.097321,-2.142029c0,-0.905914 -0.510712,-1.569855 -1.265564,-1.947296c-0.658844,-0.329559 -1.453064,-0.194763 -2.238983,-0.194763c-0.804382,0 -1.314301,0.206848 -2.044464,0.389374c-0.82724,0.207001 -1.23349,1.136444 -1.557526,1.460754c-0.551514,0.551453 -0.600189,1.426697 -0.778839,2.141937c-0.17099,0.683899 -0.097321,1.655334 -0.097321,2.336823c0,0.381622 -0.854767,1.471832 -0.973663,1.947021c-0.215607,0.86322 -1.3992,1.381409 -1.946869,1.655273c-0.812164,0.406311 -2.210968,-0.083221 -2.823181,-0.389435c-0.500916,-0.25061 -1.394348,-1.696777 -1.654938,-2.044434c-0.421051,-0.561646 -0.883972,-0.981415 -1.265717,-1.363434c-0.519623,-0.519592 -0.98822,-0.798401 -1.557434,-1.557709c-0.44278,-0.590515 -0.763702,-1.235291 -0.973663,-1.655273c-0.369019,-0.738251 -0.471619,-1.235352 -0.876099,-2.044678c-0.36673,-0.733673 -0.848572,-1.502319 -1.265564,-2.336517c-0.46048,-0.921295 -0.476593,-1.352997 -1.070984,-1.947388c-0.615387,-0.615753 -0.778717,-1.474426 -0.778717,-2.336914c0,-0.864075 -0.292053,-1.77179 -0.292053,-2.628876c0,-0.782074 -0.292114,-1.518951 -0.292114,-2.33667c0.000153,-0.782379 0,-1.519043 0,-2.3367c0.000153,-0.722565 0.486786,-1.318481 0.486786,-2.142059c0,-0.898499 -0.194672,-1.296387 -0.194672,-2.14209c0,-1.01651 0.081787,-1.518585 0.486786,-2.531433c0.260742,-0.652161 1.01059,-1.144928 1.265533,-1.655212c0.306244,-0.61264 0.629486,-1.066376 1.070953,-1.655212c0.445984,-0.595001 1.131256,-0.940826 1.849609,-1.168274c0.718201,-0.227661 1.462921,-0.414612 2.141632,-0.584106c1.055634,-0.26416 1.943542,-0.147156 2.920654,0.09726c1.059296,0.264954 2.093872,0.389435 3.212555,0.389435c0.538879,0 0.797821,0.264526 1.07077,0.486725c0.27301,0.222412 0.540833,0.424774 1.070892,0.292175c0.539825,-0.135101 0.389496,-1.877502 0.389496,-2.336792c0,-0.551147 -0.215149,-0.840424 -0.194733,-1.070892c0.020294,-0.23056 0.265808,-0.42511 0.778778,-0.681702c0.89801,-0.448883 1.029572,-0.584167 2.141815,-0.584167c0.982574,0 1.901611,0.194794 2.823029,0.194794c0.545837,-0.000092 1.33963,0.621216 1.849823,0.876221c0.49649,0.248413 0.805908,0.250702 1.16806,0.292175c0.362305,0.041443 0.693085,0.177521 1.070923,0.681488c0.51767,0.69046 1.258148,1.160889 1.752319,1.655212c0.539551,0.539825 1.570679,0.833984 2.044434,1.070923c0.34726,0.173859 0.290833,1.942291 0.389465,2.336853c0.187897,0.752136 0.63385,1.36499 0.973419,2.044647c0.474274,0.94873 0.696472,1.984467 1.070831,2.921051c0.268097,0.670227 0.519409,1.33078 0.778961,1.849884c0.409607,0.819702 0.645508,1.199127 1.362701,1.5578c0.590637,0.295288 1.200714,0.324615 1.849823,0.486847c0.768646,0.192261 1.392426,-0.493622 1.752319,-0.973816c0.277496,-0.369965 0.202209,-0.9263 0.097321,-1.460266c-0.104706,-0.534058 -0.304443,-1.059174 -0.486755,-1.36319c-0.575897,-0.960052 -0.403412,-1.891479 -0.778809,-3.018311c-0.295746,-0.887482 -0.910126,-1.732788 -1.362976,-2.336761c-0.451874,-0.602692 -0.535583,-1.655609 -0.876099,-2.3367c-0.36377,-0.727509 -0.592773,-1.299957 -0.778809,-2.0448c-0.18335,-0.733215 -0.231415,-1.509674 -0.389435,-2.141998c-0.24408,-0.976563 0.32373,-1.783997 0.973419,-2.43396c0.481873,-0.481934 0.545502,-0.819092 0.68158,-1.363251c0.778046,-0.77829 1.195038,-1.708405 1.654999,-2.628632c0.392548,-0.785736 0.584167,-1.422607 0.584167,-2.336914c0,-0.478271 0.441467,-0.978546 0.97345,-1.460541c0.532043,-0.481781 1.15686,-0.958221 1.460266,-1.363007c0.565491,-0.754059 1.341064,-1.514343 1.752319,-2.336761c0.346741,-0.693939 1.033997,-1.215485 1.265594,-2.141998c0.158508,-0.635071 0.106323,-1.399078 0.292053,-2.14209c0.206451,-0.826385 0.385254,-1.54129 0.583984,-2.33667c0.199005,-0.795715 0.189636,-1.480682 0,-2.239502c-0.184753,-0.739319 -0.492828,-1.472687 -0.778778,-2.044678c-0.386139,-0.772491 -0.920563,-1.212555 -1.362854,-1.655273c-0.348816,-0.348816 -0.291931,-1.777008 -0.291931,-2.336548c0,-0.496429 1.488861,-0.486938 1.94693,-0.486938c0.710541,0 1.552887,-0.461182 2.044373,-0.584198c0.454773,-0.113678 1.088867,-1.204376 1.362793,-1.752533c0.342224,-0.684692 0.575073,-1.326721 0.778931,-2.142181c0.220123,-0.881165 -0.194794,-1.561584 -0.194794,-2.336517c0,-0.665527 0.737885,-1.391296 1.265564,-1.655212c0.758972,-0.37973 1.21167,-0.681793 2.141815,-0.681793c0.901031,0 1.660736,0.194763 2.531067,0.194763c1.040283,0 1.272614,-0.306091 1.654999,-1.070831c0.28833,-0.577087 0.194641,-1.648987 0.194641,-2.336853c0,-0.788757 -0.049561,-1.561676 -0.194641,-2.142151c-0.118134,-0.472717 0.092651,-0.954956 0.194641,-1.363037c-0.130554,-0.52301 0.938721,-2.106873 1.070862,-2.239258c0.508453,-0.508606 1.069214,-1.021454 1.75235,-1.363159c0.585205,-0.292664 1.263794,-0.776855 1.849792,-1.363068c0.631104,-0.631531 1.17218,-1.367096 1.557587,-1.752533c0.569855,-0.570374 0.651733,-1.13855 1.168121,-1.655273c0.243561,-0.243408 0.13266,1.77951 0,2.044647c-0.189606,0.379425 -0.09256,0.646454 0.09729,0.973816c0.190002,0.326965 0.506226,0.661652 0.584229,0.973511c0.126678,0.50647 -0.083679,0.846222 -0.097351,1.071075c-0.013702,0.224609 0.09375,0.389496 0.778717,0.389496c0.960114,0 1.203949,-0.265961 1.557709,-0.973785c0.377472,-0.755188 1.054016,-0.839233 1.752289,-1.363098c0.528717,-0.396606 0.827606,-1.022156 1.362854,-1.557892c0.62915,-0.629333 1.063232,-0.768097 1.654999,-1.55777c0.509521,-0.679138 1.189026,-0.691895 1.947021,-1.070923c1.065094,-0.532928 0.577484,-1.264099 1.752289,-1.557892c0.725159,-0.181366 1.18219,-0.806702 1.460358,-1.363007c0.29071,-0.581635 -0.486725,-1.42337 -0.486725,-2.044739c0,-0.992523 -0.268372,-1.363953 -0.77887,-2.044586c-0.275452,-0.367401 -0.543823,-0.434204 -0.77887,-0.389618c-0.234924,0.044617 -0.394928,0.200195 -0.583984,0.389618c-0.46405,0.464142 -0.681549,1.654816 -0.973572,2.239258c-0.406097,0.812347 -0.201752,1.343964 -0.876221,1.850067c-0.493073,0.36969 -1.793335,-1.004517 -2.141785,-1.265839c-0.611206,-0.458618 -1.52655,-0.584229 -2.336273,-0.584229c-0.499786,0 -0.750244,0.19165 -0.973511,0.292053c-0.223358,0.100525 -0.442749,0.088226 -0.77887,-0.584076c-0.26889,-0.538147 -0.175323,-1.674957 -0.291992,-2.142059c-0.105896,-0.423187 -0.364899,-0.600708 -0.486847,-0.778839c-0.121979,-0.178101 -0.041962,-0.444855 0.389404,-0.876373c0.564484,-0.564606 0.87616,-0.321686 0.87616,-1.363281c0,-0.784576 0.679474,-1.361969 1.265656,-1.655029c0.760681,-0.380493 0.350677,-0.973602 1.460205,-0.973602c0.772736,0 1.575745,-0.252502 2.044434,-0.486786c0.442383,-0.221497 0.703644,-0.523407 0.681427,-0.778961c-0.021973,-0.255493 -0.262543,-0.389465 -0.77887,-0.389465c-0.973938,0 -1.536682,0.584137 -2.531067,0.584137c-0.614502,0 -1.600189,0.670685 -2.141785,0.7789c-0.780212,0.156097 -1.524658,0.089142 -2.336273,0.292175c-0.835876,0.208893 -1.48288,0.857544 -2.336609,1.070862c-0.752594,0.188293 -1.693359,1.419556 -1.84964,2.044739c-0.243317,0.974091 -1.037567,1.816589 -1.752258,2.531525c-0.713531,0.713623 -1.060638,0.735504 -1.75238,0.389435c-0.091888,-0.045837 1.046783,-1.996399 1.265625,-2.434113c0.503479,-1.007019 0.667603,-1.641052 1.557587,-2.531586c0.67569,-0.675629 1.382477,-1.09024 1.947083,-1.655151c0.663116,-0.663147 0.978973,-1.340057 1.84964,-1.55777c0.88736,-0.221893 1.88382,-0.09729 2.823212,-0.09729c0.891418,-0.000214 1.474304,-0.389679 2.239014,-0.389679c0.711731,0 1.512482,-0.988068 2.141724,-1.460205c0.72113,-0.541199 1.894226,-0.51535 2.725922,-0.681763c0.946014,-0.189148 1.338562,-0.438019 1.654846,-1.070953c0.34848,-0.69696 1.26889,-0.58725 1.752533,-1.071136c0.34552,-0.345764 0.387329,-0.71286 0.486725,-0.973572c0.099152,-0.260498 0.181549,-0.459076 0.681335,-0.584137c0.766388,-0.191559 1.609528,-0.134674 2.239105,-0.291962c0.673096,-0.168243 1.541168,0 2.239136,0c0.548035,0 0.910706,-0.082672 1.070862,-0.292084c0.160156,-0.209534 0.194794,-0.568665 0.194794,-0.973663c0,-0.760681 -0.439178,-1.41275 -0.973602,-1.947388c-0.613525,-0.613708 -0.943512,-1.205688 -1.363007,-2.044678c-0.361664,-0.723724 -0.692108,-1.579285 -0.973419,-2.14209c-0.332062,-0.664276 -0.584229,-1.460571 -0.876221,-2.044556c-0.392639,-0.785889 -1.201263,-1.201019 -1.84964,-1.363251c-0.664764,-0.166046 -1.471741,-0.887573 -1.849731,-1.265686c-0.459869,-0.460052 -0.912018,-0.927399 -1.362854,-1.265686c-0.646576,-0.485046 -0.953003,-0.54303 -1.265625,-1.168427c-0.295227,-0.590729 -0.705139,-1.118408 -1.070709,-1.849915c-0.284027,-0.567871 -0.695862,-0.904785 -0.973663,-1.460449c-0.295197,-0.59082 -0.085236,-1.533539 -0.292053,-1.947296c-0.279449,-0.559204 -0.48822,-1.463409 -0.778717,-2.044586c-0.327606,-0.655334 -0.535339,-0.778442 -0.87616,-1.460754c-0.434723,-0.869476 0.098267,-1.361877 -0.486938,-1.947144c-0.554688,-0.554962 -0.586823,-1.023743 -1.265564,-1.363281c-0.41629,-0.207977 -0.581146,-0.399078 -0.778717,-0.486633c-0.197632,-0.087524 -0.40799,-0.03952 -0.876068,0.194763c-0.084412,0.042023 -0.695343,1.488037 -0.778931,1.655151c-0.353241,0.706757 -0.848572,0.848572 -1.557587,1.55777c-0.6539,0.654144 -1.031738,1.090149 -1.363007,1.752625c-0.292816,0.585876 -1.467438,0.192871 -1.84964,0.097504c-0.352875,-0.088287 -0.418671,-0.446198 -0.389343,-0.876312c0.029388,-0.430267 0.088287,-0.912628 0,-1.2659c-0.168243,-0.673218 0,-1.638428 0,-2.336609c0.000153,-0.334595 0.365265,-0.343262 0.77887,-0.389526c0.413727,-0.046356 0.931702,-0.15274 1.168213,-0.389465c0.292419,-0.292786 0.466217,-0.456451 0.486755,-0.68161c0.020294,-0.225037 -0.112366,-0.501923 -0.486755,-0.87616c-0.436859,-0.436951 -1.532379,-0.261414 -2.044373,-0.389618c-1.084991,-0.271271 -1.513306,-0.161407 -2.336578,-0.778809c-0.728699,-0.5466 -1.152893,-1.009918 -1.362885,-1.849884c-0.137421,-0.550323 -1.298004,-0.446228 -1.84964,-0.584229c-0.777649,-0.194611 -1.582825,-0.194611 -2.433685,-0.194611c-0.729828,-0.000214 -1.285034,0.588928 -2.044373,0.778839c-0.426361,0.10675 -0.785675,-0.071228 -1.070862,-0.097351c-0.285126,-0.026245 -0.519928,0.034729 -0.681427,0.681458c-0.214294,0.856873 -0.559479,1.410919 -0.876221,2.044586c-0.260529,0.520996 -0.292084,1.379211 -0.292084,2.142151c0,0.94873 -0.25705,1.113495 0,2.141998c0.174835,0.699554 -0.064972,1.622833 -0.194794,2.141998c-0.198151,0.79303 0.197418,1.547241 0,2.336853c-0.252716,1.011108 -0.533813,1.365906 -0.097198,2.23941c0.404999,0.810059 0.830933,0.987488 1.070801,1.947174c0.192749,0.771667 -0.292084,1.563263 -0.292084,2.336823c0,0.668732 -0.979401,1.46814 -1.265564,1.849884c-0.35849,0.478302 -0.778717,1.290924 -0.778717,1.947174c-0.000092,0.533844 -1.267426,0.925934 -1.557739,1.071136c-0.773315,0.386719 -1.18576,1.029236 -1.654938,1.655151c-0.364746,0.486328 -0.389374,1.643066 -0.389374,2.239502c0,0.761963 -0.194794,1.527161 -0.194794,2.3367c0,0.772034 0,1.56485 0,2.336914c0,0.790344 0.191772,1.180084 0,1.947083c-0.184326,0.737549 -1.073792,1.218567 -1.557526,1.46051c-0.455841,0.228058 -0.890503,-0.02478 -1.168243,-0.389465c-0.277649,-0.364655 -0.486755,-0.885864 -0.486755,-1.168243c0.000092,-0.823669 0,-1.708038 0,-2.531677c0.000092,-0.657776 -0.194641,-1.435211 -0.194641,-2.141876c0,-0.823547 0,-1.610718 0,-2.434296c0,-0.952789 -0.299011,-1.390411 -0.486847,-2.141876c-0.1185,-0.473999 -1.195984,-1.196136 -1.557587,-1.557861c-0.530518,-0.530548 -1.250488,-0.966125 -1.849731,-1.265839c-0.492767,-0.246277 -1.204254,-0.912323 -1.557617,-1.265686c-0.742615,-0.74295 -1.198883,-1.034973 -1.557556,-1.752625c-0.37088,-0.741943 -1.339813,-0.876221 -2.141785,-0.876221c-0.849854,0.000061 -1.681427,-0.190216 -2.336395,-0.681427c-0.471252,-0.353485 -0.584167,-1.541595 -0.584167,-2.044861c0,-0.976868 -0.117279,-1.755768 -0.291931,-2.628723c-0.143402,-0.716736 -0.059265,-1.710236 0.097321,-2.3367c0.21933,-0.878052 1.172028,-1.565613 1.460175,-2.142059c0.402893,-0.80603 1.682373,-1.390381 2.336487,-2.044647c0.628845,-0.629059 0.966705,-1.552643 1.752319,-2.142151c0.994965,-0.746552 2.028687,-1.306213 3.115173,-1.849976c0.57428,-0.287109 0.649994,-1.10498 0.876221,-1.557648c0.405121,-0.810516 0.655823,-1.532104 1.168243,-2.044739c0.628174,-0.62851 1.179077,-1.179047 1.752319,-1.752716c0.497162,-0.497192 1.890472,-0.389343 2.141754,-0.389343c0.343201,0 0.96991,1.842682 1.07077,2.044708c0.213135,0.426147 0.374969,0.662201 0.68158,0.778839c0.306488,0.116882 0.778534,0.082672 1.168182,0c0.779175,-0.164978 1.676453,-0.576233 2.7258,-0.87616c0.584442,-0.167114 1.283447,-1.274658 1.84964,-1.558044c0.551025,-0.27536 0.584076,-1.562622 0.584076,-2.239319c0,-0.888336 -0.097229,-1.355804 -0.097229,-2.141937c0,-0.441559 -1.289337,-0.936707 -1.557648,-1.071075c-0.375946,-0.187988 -0.411041,-0.6203 -0.291992,-1.070923c0.118744,-0.450836 0.413513,-0.900635 0.584076,-1.070984c0.482391,-0.482697 1.316864,-0.816132 1.94693,-0.973755c0.837494,-0.209351 1.604675,-0.169525 2.239075,-0.486847c0.684784,-0.342346 0.86673,-0.769318 1.363068,-1.265686c0.771179,-0.771454 0.848724,-1.253448 1.070709,-2.141998c0.163239,-0.653076 0.076508,-1.668823 0.194641,-2.141937c0.196747,-0.787018 0.946655,-1.521759 1.265656,-1.947449c0.234375,-0.312561 0.331024,-0.586792 0.584167,-0.7789c0.25296,-0.1922 0.577911,-0.292114 1.168274,-0.292114c0.561798,0 0.926544,0.024933 1.168121,0.194855c0.241547,0.169586 0.38324,0.474548 0.584106,0.87616c0.288391,0.577148 0.097412,1.649048 0.097412,2.336914c0,0.826904 -0.642548,1.129211 -1.070923,1.557678c-0.387573,0.387665 1.357849,1.213287 1.557648,1.36319c0.310089,0.232391 0.137787,0.732483 -0.194641,1.265686c-0.332611,0.533234 -0.815887,1.047607 -0.876221,1.168427c-0.253876,0.507629 -0.89798,1.016968 -1.265503,1.752625c-0.489105,0.978302 -0.585785,1.120026 -1.947144,1.460449c-0.88266,0.22052 -1.603729,0.899292 -2.141632,1.168182c-0.384369,0.192352 -0.399902,0.464081 -0.292175,0.778992c0.10791,0.314972 0.2742,0.663818 0.389435,0.7789c0.674866,0.674988 0.966248,0.655487 1.849731,0.876312c1.049316,0.262543 1.422607,-0.050232 2.044281,0.778961c0.422485,0.563385 0.597076,0.804565 0.876221,1.363098c0.396393,0.793335 0.854218,1.27533 1.070923,2.141937c0.096008,0.384491 1.541809,0.527649 2.044281,0.778961c0.653992,0.327057 1.673248,0.39856 2.239166,0.681641c0.716583,0.358368 1.045959,0.57782 1.84964,0.77887c0.648987,0.162262 0.861542,0.483093 1.654938,0.68158c0.473694,0.11853 0.766968,0.15448 0.973572,0c0.206604,-0.154633 0.284515,-0.457092 0.389343,-0.876251c0.086914,-0.348022 -0.294525,-0.77951 -0.681488,-1.070923c-0.386749,-0.291565 -0.769897,-0.433838 -0.87616,-0.487c-0.81543,-0.407867 -1.133057,-0.549042 -1.654999,-1.070953c-0.423218,-0.423645 -0.612793,-0.794617 -0.584076,-1.071136c0.028809,-0.276215 0.276062,-0.470764 0.584076,-0.778748c0.299561,-0.299622 0.621399,-0.204865 0.973663,0c0.35202,0.204712 0.747284,0.552612 0.876068,0.681488c0.337402,0.337555 0.733917,0.243927 1.070862,0c0.337067,-0.243958 0.541077,-0.704041 0.584198,-0.876312c0.154633,-0.61908 0.291931,-1.026245 0.291931,-1.947327c0,-0.963165 -0.643219,-1.126465 -0.389343,-2.14209c0.106934,-0.428192 -0.256409,-0.747955 -0.68158,-0.973572c-0.425018,-0.225525 -0.924438,-0.401367 -1.168091,-0.584259c-0.783539,-0.587585 -1.161774,-0.57077 -1.557709,-1.363068c-0.285187,-0.570587 -0.091522,-0.872742 0.194794,-0.973328c0.286316,-0.101013 0.655701,-0.05542 0.876221,0c0.885254,0.22113 1.046112,0.656464 1.654785,1.265594c0.692932,0.692963 0.688446,1.074341 1.460358,1.460449c0.744232,0.372192 0.741852,0.973663 1.557495,0.973663c0.518494,0 0.58429,-1.570313 0.58429,-2.0448c0,-0.832245 -0.389496,-1.448303 -0.389496,-2.336761c0,-0.352539 0.822174,-0.962433 0.973572,-1.265686c0.230164,-0.460663 0.207428,-0.863464 0,-1.168427c-0.207581,-0.305023 -0.567841,-0.56778 -0.778839,-0.778809c-0.554993,-0.555206 -1.031097,-0.796692 -1.362946,-1.460602c-0.380249,-0.760895 -1.187286,-1.089996 -1.84964,-1.752411c-0.100067,-0.200378 -0.431763,0.008972 -0.77887,0.09726c-0.346893,0.088165 -0.689423,0.065521 -0.87616,-0.681458c-0.178986,-0.717041 0.227783,-1.689728 0.389435,-2.336945c0.184113,-0.736084 0.601715,-0.946136 0.77887,-1.655182c0.138855,-0.555969 0.443878,-0.716675 0.584076,-0.876099c0.140198,-0.159576 0.170258,-0.341095 -0.097351,-0.876465c-0.187103,-0.374329 -1.183777,-0.786499 -1.557587,-0.973511c-0.619446,-0.310028 -1.008636,-0.813904 -1.363007,-1.168549c-0.341278,-0.34137 -0.19455,-1.815491 -0.19455,-2.3367c0,-0.38974 -0.187683,-0.702362 -0.486938,-0.876312c-0.299042,-0.173553 -0.657227,-0.231232 -0.973358,-0.389282c-0.560089,-0.280334 -1.202301,-0.292114 -2.044586,-0.292114c-0.67276,0 -1.710785,-0.135864 -2.336273,-0.292023c-0.719055,-0.180023 -1.659668,0.171417 -2.141663,0.292023c-0.673187,0.168304 -1.638702,0 -2.336517,0c-0.797913,0 -1.083405,-0.295227 -1.84964,-0.486938c-0.493866,-0.123474 -1.632324,0.864777 -2.044434,1.070923c-0.417755,0.209106 -0.596863,0.054413 -0.681274,-0.29187c-0.084717,-0.34668 -0.097504,-0.832184 -0.097504,-1.168518c0,-0.772064 0,-1.564697 0,-2.336823c0,-0.328644 -0.240021,-0.504211 -0.584076,-0.584137c-0.343964,-0.079865 -0.772186,-0.097412 -1.070923,-0.097412zm84.403656,9.444458c-0.414612,0.085785 -0.764282,0.428802 -0.876221,0.87616c-0.129883,0.519775 -0.193359,1.260376 -0.291992,1.655304c-0.030945,0.12384 -1.925323,-0.242432 -3.017944,0.194824c-0.462097,0.184875 -1.124756,0.475922 -1.557648,0.584137c-0.594238,0.148468 -0.41626,0.574341 -0.291901,1.071075c0.155151,0.620819 1.901306,0.743011 2.433716,0.876312c0.372681,0.093079 0.874023,0.776611 1.265503,1.168396c0.389557,0.389832 1.051544,0.666992 1.460266,0.973511c0.318115,0.238617 0.653839,0.945923 1.070862,1.36319c0.432892,0.433167 1.178925,0.635345 1.752289,0.778809c0.694214,0.173737 1.128815,-0.19458 1.849731,-0.19458c0.588165,0 1.101654,0.291992 1.75235,0.291992c0.674103,0 1.143555,-0.291992 1.752289,-0.291992c0.495758,0 0.697418,-0.800049 0.973511,-1.168274c0.361908,-0.482849 0.389496,-1.229675 0.389435,-1.850128c0,-0.573944 -0.187927,-1.141357 -0.292084,-1.557861c-0.123749,-0.495239 -1.10202,-0.7435 -1.362946,-1.265778c-0.327423,-0.655243 -0.347015,-0.820221 -1.07077,-1.363037c-0.493591,-0.370117 -1.388062,-0.791504 -1.75235,-0.973572c-0.578705,-0.289429 -1.000946,-0.53183 -1.460358,-0.876373c-0.303986,-0.22821 -0.765869,-0.292114 -1.265594,-0.292114c-0.327362,0 -0.743195,0 -1.070862,0c-0.144318,-0.036041 -0.251251,-0.028503 -0.389282,0zm34.267487,12.56012c-0.627747,0.082306 -0.778778,1.027679 -0.778625,1.849915c0,0.828949 -1.11087,1.587799 -1.460358,1.849823c-0.480743,0.360626 1.949615,1.315216 2.141785,1.363312c0.821564,0.205414 1.504425,0.904358 2.336334,1.070923c0.600098,0.120056 1.594086,0.773956 2.336517,1.070923c0.425842,0.170532 0.558441,0.794922 0.681366,1.460602c0.123291,0.665436 0.194641,1.342651 0.194641,1.752625c0,0.846832 -0.004639,1.733398 0.194794,2.531525c0.208099,0.832245 0.442444,1.15033 0.194702,2.141785c-0.118286,0.473877 -0.17572,0.835571 -0.194702,1.168488c-0.018921,0.332977 0.033203,0.617401 0.389343,0.973572c0.639648,0.639984 2.440582,0.298859 3.212738,1.071075c0.764252,0.764679 1.360992,1.282623 2.238983,2.336761c0.450378,0.540588 -0.041626,1.516083 0.584076,2.141998c0.429504,0.429657 1.853607,0.510345 2.336426,0.389526c0.340302,-0.085175 0.503082,-2.011902 0.584167,-2.336914c0.101837,-0.40744 0.700714,-0.620605 1.362915,-0.681458c0.66214,-0.060822 1.423218,0.030243 1.752289,0.194763c0.585266,0.292694 0.6474,1.20694 0.486877,1.849884c-0.121063,0.484436 -0.018768,0.803131 0.194641,1.071136c0.21347,0.267731 0.528656,0.507874 0.876129,0.681641c0.640686,0.320221 1.497528,0.209564 1.947083,0.097198c0.714264,-0.17865 1.034607,-1.193115 1.362854,-1.849976c0.222626,-0.445221 0.317657,-0.780731 0.389435,-1.070923c0.071777,-0.290131 0.121521,-0.547516 0.584137,-0.778961c0.654663,-0.327545 0.959534,-0.834686 0.778717,-1.558044c-0.196747,-0.787781 -0.417633,-1.516602 -0.778717,-2.239197c-0.480347,-0.960663 -1.494507,-1.315735 -2.336426,-1.947205c-0.643219,-0.482941 -0.577576,-0.655365 -0.778931,-1.460541c-0.13504,-0.541504 -1.062653,-0.969482 -1.654846,-1.265839c-0.545197,-0.272583 -0.902466,-1.230042 -1.557587,-1.557861c-0.951813,-0.475922 -1.864532,-0.619385 -2.725922,-1.265533c-0.875793,-0.657013 -1.644928,-0.893036 -2.531097,-1.558014c-0.856384,-0.642426 -1.607819,-1.413025 -2.336426,-2.141937c-0.718597,-0.718781 -1.421997,-1.032776 -1.946991,-1.5578c-0.644592,-0.644836 -1.654205,-1.022034 -2.336426,-1.363159c-0.881775,-0.440826 -1.37677,-0.959686 -2.141724,-1.265778c-0.924011,-0.369598 -1.581665,-0.468597 -2.43396,-0.68161c-0.291016,-0.072571 -0.618683,-0.332245 -0.875916,-0.486725c-0.110138,-0.027588 -0.202576,-0.011688 -0.292297,0zm-85.08493,46.24823c-0.260376,0.260559 -0.741333,0.03009 -1.070801,0.194672c-0.353149,0.176819 -0.504578,0.850037 -0.584076,1.168579c-0.130829,0.522644 -0.085236,1.009827 -0.194794,1.557861c-0.124634,0.62265 0.062164,1.61142 0.194794,2.141846c0.104919,0.419983 -0.569031,0.943268 -0.778992,1.363098c-0.215973,0.432465 -0.493011,0.787354 -0.778625,1.168427c-0.335449,0.447418 -0.284302,1.421173 -0.389526,1.947235c-0.125244,0.626831 -0.156036,1.111115 -0.291992,1.655365c-0.10321,0.412476 -0.097351,0.82016 -0.097351,1.265747c0,0.336945 0.800171,0.54599 1.070923,0.681549c0.290344,0.145172 0.443939,-0.200134 0.584076,-0.584198c0.140045,-0.384338 0.25708,-0.841339 0.486694,-1.071075c0.469818,-0.469849 0.713379,-0.681549 1.362946,-0.681549c0.42511,0 0.880402,-0.097321 1.362854,-0.097321c0.269928,0 0.824127,0.16861 1.070953,0.292023c0.468536,0.234344 0.754547,0.462463 1.07077,0.77887c0.376556,0.37677 0.2659,0.821075 0.876312,0.973816c0.496613,0.124084 0.810913,0.389435 1.362762,0.389435c0.56604,0 1.08902,0 1.655151,0c0.411713,0 0.849304,0 1.265411,0c0.593353,0 0.584229,-0.377502 0.584229,-0.973877c0,-0.523712 0.075897,-0.887787 0.194641,-1.362946c0.121155,-0.485352 -0.104828,-0.808441 -0.194641,-1.168549c-0.105713,-0.422821 -0.799713,-0.897003 -1.071014,-1.168213c-0.60498,-0.605194 -1.269073,-0.501007 -1.460205,-1.265991c-0.08905,-0.355621 0.097351,-0.88443 0.097351,-1.265533c0,-0.370911 0.09729,-0.751617 0.09729,-1.168335c0,-0.498413 -0.312927,-0.723419 -0.486633,-1.071014c-0.214752,-0.429413 -0.615021,-0.389374 -1.071014,-0.389435c-0.428467,0 -1.036316,-0.109955 -1.460205,-0.194824c-0.479248,-0.095917 -0.745209,-0.063782 -1.070709,-0.389526c-0.356689,-0.356476 -0.68158,-0.3013 -0.68158,-0.87619c0,-0.300751 -0.206238,-0.629944 -0.291992,-0.973572c-0.102142,-0.408447 -0.185089,-0.552673 -0.486877,-0.778961c-0.181183,-0.135956 -0.672607,-0.097412 -0.876129,-0.097412zm144.761322,3.699921c-0.497314,0.071747 -0.513977,1.877106 -1.070862,2.434204c-0.514496,0.514587 -1.039734,0.650238 -1.460266,1.070679c-0.722687,0.723053 -1.59317,1.398895 -2.336456,2.142303c-0.636841,0.637085 -0.741394,1.901947 -1.070831,2.726288c-0.23584,0.589691 0,1.880981 0,2.531525c0,0.826996 -0.94928,2.129913 -1.265594,2.920654c-0.198456,0.49646 -0.365417,0.723206 -0.681427,0.876404c-0.315979,0.153351 -0.728973,0.157898 -1.265564,0.292114c-0.871887,0.217926 -1.576721,0.398926 -2.336426,0.779053c-0.554779,0.277283 -0.981506,1.476227 -1.265503,2.044647c-0.294098,0.588379 -0.131836,1.695496 -0.292023,2.336609c-0.259827,1.039551 -0.199707,2.21463 0,3.212921c0.163177,0.816498 0.29126,1.554443 0.486725,2.336975c0.211487,0.845856 -0.156433,1.599213 -0.292084,2.141785c-0.204559,0.818573 -0.485962,1.55484 -0.681488,2.336914c-0.198517,0.794708 0.77887,1.588654 0.77887,2.434174c0,0.891052 0.228424,1.714783 0,2.628876c-0.148743,0.594482 0.133484,1.463776 0.486725,2.33667c0.35321,0.872894 0.83313,1.774963 0.973419,2.3367c0.09668,0.386932 -2.017059,2.950378 -2.239014,3.505188c-0.281891,0.704803 -0.691956,1.64032 -1.168152,2.434174c-0.481232,0.802368 0.097382,1.707642 0.097382,2.531525c0,0.858521 0.19455,1.808319 0.19455,2.726227c0,1.127747 0.194794,2.285156 0.194794,3.407837c0,1.009644 -1.024719,2.443665 -1.265564,3.407593c-0.22876,0.915375 0.016357,2.07724 0.389496,2.823853c0.278168,0.556641 -0.226959,1.97757 -0.389496,2.628571c-0.274139,1.096466 0.292053,2.324677 0.292053,3.407745c0,0.154358 0,0.332458 0,0.486969c0,1.503143 1.227753,3.510864 1.557587,5.160217c0.180359,0.902405 -0.325806,1.400879 -0.486725,2.044739c-0.246765,0.98703 0.287659,1.735077 0.486725,2.531372c0.322571,1.290527 0.063416,2.404633 -0.486725,3.505188c-0.277496,0.555328 -0.283234,0.977142 -0.194702,1.46051c0.088745,0.483521 0.293488,0.97702 0.486694,1.460541c0.373535,0.933899 0.039215,2.201172 0.292084,3.212982c0.215271,0.861267 -0.097351,2.427948 -0.097351,3.407776c0,0.70639 -0.284821,1.04007 -0.486725,1.460449c-0.201904,0.420349 -0.311127,0.897125 -0.097351,1.752625c0.0513,0.205872 0.045746,0.475525 0.097351,0.681396c0.17984,0.719177 1.677979,2.232422 2.336273,2.726288c0.459503,0.344604 0.593964,0.714539 0.681458,1.071136c0.087921,0.356628 0.097565,0.712646 0.097565,1.265778c0,1.168182 0.127045,1.879303 0.876007,2.628784c0.45813,0.458313 1.34259,0.394684 1.849884,1.071075c0.41626,0.555115 0.389252,2.113281 0.389252,2.823486c0,0.866821 0.022583,1.364685 0.292145,1.849884c0.269348,0.485199 0.765869,0.960663 1.362885,1.557861c0.257202,0.257324 0.521454,0.424164 0.778778,0.681488c0.611206,0.611572 0.721039,1.694885 1.362854,2.336761c0.59549,0.595764 1.52243,1.34549 2.336639,1.752625c0.49115,0.245667 1.002899,0.075531 1.460083,-0.194763c0.457092,-0.270294 0.840759,-0.630554 1.168365,-0.876373c0.959503,-0.719543 1.6716,-1.396393 2.141693,-2.3367c0.636963,-1.2742 1.759949,-2.66687 2.04422,-4.089233c0.109406,-0.547119 0.26239,-0.900787 0.584229,-1.168427c0.321747,-0.267548 0.825226,-0.461395 1.265503,-0.681549c0.786102,-0.393097 1.528778,-1.249969 1.946991,-1.947327c0.460693,-0.768097 1.289215,-1.284271 2.141815,-1.070892c0.657928,0.164581 1.116913,0.650391 1.460114,1.168182c0.343292,0.518005 0.649078,1.037781 0.779022,1.558075c0.208191,0.833008 -0.63446,1.853088 -0.973663,2.531311c-0.568207,1.136963 -0.302063,1.992981 -1.07077,3.018311c-0.686493,0.915527 -1.030182,2.255066 -1.460297,3.115662c-0.580841,1.16217 -0.43161,2.937164 -0.681427,4.186798c-0.111115,0.555573 -0.508087,1.659912 -0.778839,2.3367c-0.315491,0.788849 -0.681519,2.288574 -0.681519,3.115631c0,1.095184 -1.143921,1.995728 -1.654877,3.01825c-0.605896,1.211975 -1.05896,2.453033 -1.557617,3.699951c-0.377472,0.943939 -0.838013,1.948517 -1.362885,2.823547c-0.466217,0.777466 -0.859894,1.589874 -1.070923,2.434174c-0.194397,0.777924 -0.708496,1.417145 -1.07077,2.141998c-0.34314,0.686279 -0.404846,1.393585 -0.77887,2.14209c-0.694733,1.389526 -2.24527,3.802979 -3.407288,4.965546c-1.00177,1.002228 -2.301361,2.363678 -2.823212,3.407684c-0.342468,0.685272 -0.555817,1.20929 -0.876312,1.850128c-0.467133,0.934814 -1.09082,1.987274 -1.654785,3.11557c-0.394348,0.78891 -1.076385,1.179199 -1.460419,1.947479c-0.398193,0.796509 -0.579132,1.125336 -0.681274,1.557648c22.25946,-26.085632 35.825195,-59.919006 35.825195,-96.87796c0,-18.86142 -3.639771,-36.833435 -10.0271,-53.453308c-0.65097,0.051208 -1.802734,0.292084 -2.531372,0.292084c-0.469055,0.000244 -0.817139,0.362091 -1.070679,0.778809c-0.253662,0.416901 -0.403656,0.933472 -0.486816,1.26593c-0.230743,0.923126 -0.181335,1.971252 0.097382,2.920898c0.278748,0.949493 0.744751,1.815704 1.265472,2.3367c0.394684,0.394684 0.633362,0.777893 0.584167,1.070892c-0.049225,0.293182 -0.343903,0.486969 -0.973511,0.486969c-0.681793,0.000061 -1.080048,-0.108826 -1.362915,-0.292053c-0.282806,-0.183258 -0.430939,-0.431 -0.778809,-0.778961c-0.659668,-0.660034 -1.260101,-1.214172 -2.141785,-1.655121c-0.779327,-0.389832 -1.445404,-0.7229 -2.141632,-1.071075c-0.500641,-0.250397 -0.92627,-1.657806 -1.168304,-2.141937c-0.380524,-0.761261 -0.681274,-1.528381 -0.681274,-2.434387c-0.000061,-0.615448 -0.627686,-1.547028 -0.876282,-2.044525c-0.300995,-0.602234 -0.718689,-1.242523 -1.070801,-1.947174c-0.393616,-0.787476 -0.753967,-1.32016 -1.46051,-1.849884c-0.089935,-0.067688 -0.123383,-0.107758 -0.19458,-0.097504zm-184.577942,81.105042c-0.108154,0.047363 -0.241669,0.144165 -0.389435,0.292053c-0.430878,0.430756 -0.330261,0.346863 -1.070831,-0.097382c0.160339,0 2.032715,2.252197 2.433716,2.92099c0.188812,0.314667 0.727875,0.412079 1.265533,0.389374c0.537842,-0.022949 1.055359,-0.133209 1.363068,-0.194763c0.689209,-0.137848 0.86969,-0.549011 0.778717,-0.973572c-0.091003,-0.424805 -0.453522,-0.908325 -0.778717,-1.071167c-0.844055,-0.422272 -1.421631,-0.744934 -2.336517,-0.97348c-0.756805,-0.189453 -0.941376,-0.43454 -1.265533,-0.292053zm1.752319,6.523285c-0.575836,0.104004 -1.442352,0.468842 -1.752319,0.778961c-0.244324,0.244385 -0.042358,0.701843 0.194641,1.168335c0.237,0.466522 0.574829,0.857697 0.681458,1.071167c0.298431,0.596802 2.067169,0.778809 2.725952,0.778809c0.553467,0 0.804291,-0.250061 0.876007,-0.584137c0.071899,-0.334259 -0.012665,-0.732147 -0.09729,-1.071075c-0.152405,-0.609802 -0.905457,-1.197662 -1.265594,-1.5578c-0.366547,-0.366791 -0.04187,-0.083588 -0.87619,-0.584259c-0.115265,-0.028809 -0.294769,-0.034821 -0.486664,0zm-7.885468,5.257874c-1.113312,-0.003357 -2.157959,0.032227 -3.212616,0.876312c-1.280182,1.024109 -2.830566,2.884644 -3.699249,3.212921c0.192108,0.48056 0.345825,0.896667 0.681366,1.070862c0.335449,0.17453 0.843933,0.162292 1.362976,-0.097351c0.850647,-0.425385 1.416687,-0.610962 2.141754,-0.973511c0.751678,-0.375977 1.330566,-0.681549 2.141754,-0.681549c1.040955,0 1.735718,0.36087 2.628357,0.584137c0.674927,0.168701 1.18927,0.39978 1.947052,0.7789c0.787933,0.394073 1.510468,0.731628 2.141754,1.363251c0.613373,0.613312 1.745514,0.919617 2.336395,1.362885c0.607117,0.455627 1.727081,0.948425 2.336517,1.557922c0.394958,0.395142 1.230194,1.247986 1.84964,1.557953c0.6539,0.326904 1.211945,0.260101 1.752289,0.097351c0.540253,-0.163086 1.098907,-0.389465 1.849731,-0.389618c0.547638,0 1.475983,0.054504 2.336395,0.097351c0.860291,0.042847 1.6138,0.041351 1.94693,-0.292114c0.207001,-0.206909 0.49176,-0.488159 0.584167,-0.778809c0.092438,-0.290588 -0.007416,-0.537384 -0.584167,-0.681396c-0.822968,-0.206024 -1.548126,-0.460205 -2.433685,-0.681793c-1.225586,-0.306366 -0.837585,-0.856781 -1.84964,-1.363007c-1.146484,-0.573425 -1.486115,-0.736572 -2.823242,-1.071167c-0.875916,-0.218994 -2.203857,-0.353882 -2.920563,-1.070862c-0.644806,-0.645081 -0.99057,-1.809753 -1.654877,-2.142151c-1.161835,-0.580994 -2.050354,-1.383606 -3.407288,-1.655182c-1.354248,-0.270844 -3.010376,-0.68158 -4.38092,-0.681335c-0.404083,0 -0.699646,0.000824 -1.070831,0zm25.992859,8.860046c-0.2211,-0.019989 -0.46106,0.042145 -0.68158,0.097382c-0.904999,0.226318 -3.268127,0.013702 -3.407349,0.292053c-0.154266,0.257233 -0.352417,0.510498 -0.486572,0.7789c-0.31308,0.626221 -0.260529,0.829102 -0.097504,0.973724c0.163086,0.14447 0.470032,0.177887 0.77887,0.486786c0.115662,0.115875 0.390381,0.494995 0.486755,0.876312c0.096344,0.381409 0.003387,0.777161 -0.389404,0.973663c-0.087708,0.043762 -1.982513,1.000092 -1.946991,1.070984c0.256683,0.513397 0.520203,0.681427 1.654846,0.681427c0.944336,0 1.593903,0.124329 2.433868,0.292236c0.565063,0.113007 1.801086,0.426086 2.336334,0.292175c1.2659,-0.31665 2.212036,-0.654572 3.018005,-1.460602c0.679871,-0.680237 0.690491,-0.36731 1.947021,-0.681458c0.434662,-0.108826 0.955475,-0.089447 1.265503,-0.194763c0.310181,-0.105316 0.486786,-0.325684 0.486786,-0.876404c0,-0.584564 -0.673737,-1.363007 -1.460358,-1.363007c-0.688751,0 -1.605286,0.024902 -2.238953,-0.292023c-0.880981,-0.440826 -0.887268,-1.195618 -1.947052,-1.460541c-0.49765,-0.124634 -1.089111,-0.426392 -1.752228,-0.486847zm11.09787,3.407654c-0.306641,-0.07666 -0.469635,0.367798 -0.486542,0.876556c-0.017212,0.508514 0.143555,1.061493 0.19455,1.265594c0.112915,0.451935 1.697174,0.681427 2.239166,0.681427c0.541595,0 0.975281,0.015808 1.168182,-0.09729c0.192871,-0.11322 0.135651,-0.312683 -0.097473,-0.7789c-0.328583,-0.657532 -0.521027,-1.428894 -1.168091,-1.752625c-0.534271,-0.266998 -1.267365,-0.194519 -1.849792,-0.194763zm8.761658,0.681549c-0.159546,0.118164 -0.249573,0.546997 -0.194702,0.973755c0.054962,0.426819 0.27713,0.799408 0.973572,0.973724c0.686157,0.171661 1.698395,0.110657 2.141724,0c0.359955,-0.090057 0.220276,-0.383606 -0.097443,-0.779114c-0.317566,-0.395233 -0.73877,-0.807556 -1.07077,-0.973358c-0.398651,-0.199554 -1.159485,-0.195007 -1.654999,-0.195007c-0.040314,-0.020142 -0.051666,-0.033508 -0.097382,0zm-31.833832,0.973755c-0.129578,0.007813 -0.358093,0.097351 -0.486786,0.097351c-0.129578,-0.106232 -1.502838,-0.027374 -2.141632,0.292328c-0.446411,0.223022 -0.737885,0.439758 -0.876221,0.681305c-0.138123,0.241516 -0.145447,0.585144 0.09729,1.071075c0.25354,0.50708 0.285706,0.841888 0.389557,1.071014c0.103485,0.228943 0.301117,0.343109 0.876221,0.486877c0.93396,0.233429 1.774658,0.524323 2.628296,0.097412c0.659882,-0.330109 0.97348,-1.283478 0.973633,-2.044678c0,-0.939514 -0.262817,-1.453217 -1.070923,-1.655334c-0.124878,-0.03125 -0.259857,-0.105103 -0.389435,-0.097351zm35.922577,3.505096c-0.497803,0.105774 -0.411407,0.854187 0.097504,1.36319c0.607178,0.6073 1.243134,0.400696 1.654846,0.194763c0.448364,-0.224335 0.27771,-0.59613 -0.09729,-0.876312c-0.375061,-0.280182 -0.944916,-0.48111 -0.973572,-0.486786c-0.293549,-0.146912 -0.515503,-0.230042 -0.681488,-0.194855zm3.017853,4.284088c-0.261353,0.202515 -1.070709,0.866425 -1.070709,1.265839c0,0.380249 0.395874,0.377289 0.876068,0.292084c0.480194,-0.08548 0.992798,-0.253052 1.070923,-0.292084c0.450836,-0.225616 -0.362885,-0.936646 -0.778778,-1.265839c-0.01474,0.006592 -0.072906,-0.012024 -0.097504,0zm0.584229,3.505249c0.016296,0.026978 0.078552,0.164978 0.09726,0.194611c0.072632,-0.06073 0.108734,-0.189606 0.097504,-0.194611c-0.009491,-0.004333 -0.109314,-0.042847 -0.194763,0zm0.09726,0.194611c-0.343872,0.288391 -1.423492,1.021454 -1.557556,1.5578c-0.114105,0.456604 1.901001,-0.074188 1.946991,-0.097198c0.452087,-0.226166 -0.091003,-0.987793 -0.389435,-1.460602zm4.088898,1.070923c-0.044495,0.461548 -0.529572,1.720551 -0.097443,2.0448c0.63739,0.47821 0.928101,0.342194 1.070862,0.09726c0.142731,-0.244843 0.127625,-0.620972 0,-0.87616c-0.243774,-0.487762 -0.526123,-0.809052 -0.973419,-1.2659z" id="path6111"/>
    <path fill="url(#radialGradient3969)" fill-rule="nonzero" stroke-width="20" stroke-linecap="round" stroke-linejoin="round" marker-start="none" marker-mid="none" marker-end="none" stroke-miterlimit="4" stroke-dashoffset="50" d="m273.734955,93.712463c0,0 -39.080719,-3.787323 -65.969116,15.659393c-26.888397,19.446716 -41.584503,62.127472 -72.815308,75.063721c-62.461609,25.872437 -111.062027,12.766663 -111.062027,12.766663c-28.563187,-68.957611 4.220703,-148.10495 73.178329,-176.668121c68.957611,-28.563171 148.10495,4.220703 176.668121,73.178345z" id="path3339"/>
   </g>
  </g>
 </g>
</svg>