<?xml version="1.0"?><svg width="120.135" height="120.148" xmlns="http://www.w3.org/2000/svg">
 <g>
  <title>Layer 1</title>
  <g externalResourcesRequired="false" id="svg_1">
   <path fill="black" id="svg_2" d="m105.771004,121.147003c7.932999,0 14.362999,-6.438004 14.362999,-14.359001l0,-91.436002c0,-7.93 -6.431999,-14.352 -14.362999,-14.352l-91.434004,0c-7.929,0 -14.337,6.422 -14.337,14.352l0,91.436002c0,7.921997 6.408,14.359001 14.337,14.359001l91.434004,0z"/>
   <path id="svg_3" fill="#9ee5d6" d="m4.436052,-1.74565c-8.272278,0 -15.007048,6.042747 -15.007048,13.467637l0,103.33357c0,7.436157 6.73477,13.477783 15.007048,13.477783l115.229666,0c8.29747,0 15.037285,-6.041626 15.037285,-13.477783l0,-103.33357c0,-7.424891 -6.739815,-13.467637 -15.037285,-13.467637l-115.229666,0z"/>
   <path fill="#ffffff" id="svg_4" d="m56.82,16.518246c0.022999,-7.053 10.660004,-7.053 10.660004,0.201998l0,29.621004l41.452995,24.925003l0,10.946991l-41.264,-13.580002l0,22.129005l9.547005,7.478996l0,8.640999l-14.723007,-4.57l-14.718998,4.57l0,-8.640999l9.450001,-7.478996l0,-22.129005l-41.288998,13.580002l0,-10.946991l40.884998,-24.925003l0,-29.823002z"/>
  </g>
 </g>
</svg>